<svg width="168" height="54" viewBox="0 0 168 54" fill="none" xmlns="http://www.w3.org/2000/svg">
<rect width="168" height="54" rx="27" fill="#CEA042"/>
<path d="M42.896 24.0278C42.4614 24.0278 42.0757 24.1133 41.7388 24.2842C41.4067 24.4502 41.126 24.6919 40.8965 25.0093C40.6719 25.3267 40.501 25.71 40.3838 26.1592C40.2666 26.6084 40.208 27.1138 40.208 27.6753C40.208 28.4321 40.3008 29.0791 40.4863 29.6162C40.6768 30.1484 40.9697 30.5562 41.3652 30.8394C41.7607 31.1177 42.271 31.2568 42.896 31.2568C43.3306 31.2568 43.7651 31.208 44.1997 31.1104C44.6392 31.0127 45.1152 30.8735 45.6279 30.6929V32.5972C45.1543 32.7925 44.688 32.9316 44.229 33.0146C43.77 33.1025 43.2549 33.1465 42.6836 33.1465C41.5801 33.1465 40.6719 32.9194 39.959 32.4653C39.251 32.0063 38.7261 31.3667 38.3843 30.5464C38.0425 29.7212 37.8716 28.7593 37.8716 27.6606C37.8716 26.8501 37.9814 26.1079 38.2012 25.4341C38.4209 24.7603 38.7432 24.1768 39.168 23.6836C39.5928 23.1904 40.1177 22.8096 40.7427 22.541C41.3677 22.2725 42.0854 22.1382 42.896 22.1382C43.4282 22.1382 43.9604 22.2065 44.4927 22.3433C45.0298 22.4751 45.5425 22.6582 46.0308 22.8926L45.2983 24.7383C44.8979 24.5479 44.4951 24.3818 44.0898 24.2402C43.6846 24.0986 43.2866 24.0278 42.896 24.0278ZM57.6323 27.6313C57.6323 28.4565 57.5298 29.2085 57.3247 29.8872C57.1196 30.561 56.8071 31.1421 56.3872 31.6304C55.9722 32.1187 55.4448 32.4946 54.8052 32.7583C54.1655 33.0171 53.4087 33.1465 52.5347 33.1465C51.6606 33.1465 50.9038 33.0171 50.2642 32.7583C49.6245 32.4946 49.0947 32.1187 48.6748 31.6304C48.2598 31.1421 47.9497 30.5586 47.7446 29.8799C47.5396 29.2012 47.437 28.4468 47.437 27.6167C47.437 26.5083 47.6177 25.5439 47.979 24.7236C48.3452 23.8984 48.9067 23.2588 49.6636 22.8047C50.4204 22.3506 51.3823 22.1235 52.5493 22.1235C53.7114 22.1235 54.666 22.3506 55.4131 22.8047C56.165 23.2588 56.7217 23.8984 57.083 24.7236C57.4492 25.5488 57.6323 26.5181 57.6323 27.6313ZM49.8174 27.6313C49.8174 28.3784 49.9102 29.0229 50.0957 29.5649C50.2861 30.1021 50.5815 30.5171 50.9819 30.8101C51.3823 31.0981 51.8999 31.2422 52.5347 31.2422C53.1792 31.2422 53.7017 31.0981 54.1021 30.8101C54.5024 30.5171 54.793 30.1021 54.9736 29.5649C55.1592 29.0229 55.252 28.3784 55.252 27.6313C55.252 26.5083 55.042 25.6245 54.6221 24.98C54.2021 24.3354 53.5112 24.0132 52.5493 24.0132C51.9097 24.0132 51.3872 24.1597 50.9819 24.4526C50.5815 24.7407 50.2861 25.1558 50.0957 25.6978C49.9102 26.2349 49.8174 26.8794 49.8174 27.6313ZM69.3511 33H66.4653L61.8071 24.8994H61.7412C61.7607 25.2363 61.7778 25.5757 61.7925 25.9175C61.8071 26.2593 61.8218 26.6011 61.8364 26.9429C61.8511 27.2798 61.8657 27.6191 61.8804 27.9609V33H59.8516V22.292H62.7153L67.3662 30.312H67.4175C67.4077 29.98 67.3955 29.6504 67.3809 29.3232C67.3662 28.9961 67.3516 28.6689 67.3369 28.3418C67.3271 28.0146 67.3174 27.6875 67.3076 27.3604V22.292H69.3511V33ZM76.1846 33H73.9141V24.1816H71.0063V22.292H79.0923V24.1816H76.1846V33ZM87.2954 33L86.519 30.4512H82.6152L81.8389 33H79.3926L83.1719 22.248H85.9478L89.7417 33H87.2954ZM85.9771 28.5469L85.2007 26.0566C85.1519 25.8906 85.0859 25.6782 85.0029 25.4194C84.9248 25.1558 84.8442 24.8896 84.7612 24.6211C84.6831 24.3477 84.6196 24.1108 84.5708 23.9106C84.522 24.1108 84.4536 24.3599 84.3657 24.6577C84.2827 24.9507 84.2021 25.229 84.124 25.4927C84.0459 25.7563 83.9897 25.9443 83.9556 26.0566L83.1865 28.5469H85.9771ZM95.645 24.0278C95.2104 24.0278 94.8247 24.1133 94.4878 24.2842C94.1558 24.4502 93.875 24.6919 93.6455 25.0093C93.4209 25.3267 93.25 25.71 93.1328 26.1592C93.0156 26.6084 92.957 27.1138 92.957 27.6753C92.957 28.4321 93.0498 29.0791 93.2354 29.6162C93.4258 30.1484 93.7188 30.5562 94.1143 30.8394C94.5098 31.1177 95.02 31.2568 95.645 31.2568C96.0796 31.2568 96.5142 31.208 96.9487 31.1104C97.3882 31.0127 97.8643 30.8735 98.377 30.6929V32.5972C97.9033 32.7925 97.437 32.9316 96.978 33.0146C96.519 33.1025 96.0039 33.1465 95.4326 33.1465C94.3291 33.1465 93.4209 32.9194 92.708 32.4653C92 32.0063 91.4751 31.3667 91.1333 30.5464C90.7915 29.7212 90.6206 28.7593 90.6206 27.6606C90.6206 26.8501 90.7305 26.1079 90.9502 25.4341C91.1699 24.7603 91.4922 24.1768 91.917 23.6836C92.3418 23.1904 92.8667 22.8096 93.4917 22.541C94.1167 22.2725 94.8345 22.1382 95.645 22.1382C96.1772 22.1382 96.7095 22.2065 97.2417 22.3433C97.7788 22.4751 98.2915 22.6582 98.7798 22.8926L98.0474 24.7383C97.647 24.5479 97.2441 24.3818 96.8389 24.2402C96.4336 24.0986 96.0356 24.0278 95.645 24.0278ZM104.793 33H102.522V24.1816H99.6147V22.292H107.701V24.1816H104.793V33ZM121.961 22.292V29.2207C121.961 29.958 121.797 30.6245 121.47 31.2202C121.148 31.811 120.657 32.2798 119.998 32.6265C119.344 32.9731 118.519 33.1465 117.522 33.1465C116.106 33.1465 115.027 32.7852 114.285 32.0625C113.543 31.3398 113.172 30.3828 113.172 29.1914V22.292H115.435V28.8472C115.435 29.731 115.616 30.3511 115.977 30.7075C116.338 31.064 116.873 31.2422 117.581 31.2422C118.079 31.2422 118.482 31.1567 118.79 30.9858C119.102 30.8149 119.332 30.5513 119.478 30.1948C119.625 29.8384 119.698 29.3843 119.698 28.8325V22.292H121.961ZM130.904 30.0264C130.904 30.6611 130.75 31.2129 130.442 31.6816C130.135 32.1504 129.686 32.5117 129.095 32.7656C128.509 33.0195 127.796 33.1465 126.956 33.1465C126.585 33.1465 126.221 33.1221 125.865 33.0732C125.513 33.0244 125.174 32.9536 124.847 32.8608C124.524 32.7632 124.217 32.6436 123.924 32.502V30.3926C124.432 30.6172 124.959 30.8198 125.506 31.0005C126.053 31.1812 126.595 31.2715 127.132 31.2715C127.503 31.2715 127.801 31.2227 128.025 31.125C128.255 31.0273 128.421 30.8931 128.523 30.7222C128.626 30.5513 128.677 30.356 128.677 30.1362C128.677 29.8677 128.587 29.6382 128.406 29.4478C128.226 29.2573 127.977 29.0791 127.659 28.9131C127.347 28.7471 126.993 28.5688 126.597 28.3784C126.348 28.2612 126.077 28.1196 125.784 27.9536C125.491 27.7827 125.213 27.5752 124.949 27.3311C124.686 27.0869 124.468 26.7915 124.297 26.4448C124.131 26.0933 124.048 25.6733 124.048 25.1851C124.048 24.5454 124.195 23.9985 124.488 23.5444C124.781 23.0903 125.198 22.7437 125.74 22.5044C126.287 22.2603 126.932 22.1382 127.674 22.1382C128.23 22.1382 128.76 22.2041 129.263 22.3359C129.771 22.4629 130.301 22.6484 130.853 22.8926L130.12 24.6577C129.627 24.4575 129.185 24.3037 128.794 24.1963C128.404 24.084 128.006 24.0278 127.601 24.0278C127.317 24.0278 127.076 24.0742 126.875 24.167C126.675 24.2549 126.524 24.3818 126.421 24.5479C126.319 24.709 126.268 24.897 126.268 25.1118C126.268 25.3657 126.341 25.5806 126.487 25.7563C126.639 25.9272 126.863 26.0933 127.161 26.2544C127.464 26.4155 127.84 26.6035 128.289 26.8184C128.836 27.0771 129.302 27.3481 129.688 27.6313C130.079 27.9097 130.379 28.2393 130.589 28.6201C130.799 28.9961 130.904 29.4648 130.904 30.0264Z" fill="white"/>
</svg>
