<svg width="1624" height="785" viewBox="0 0 1624 785" fill="none" xmlns="http://www.w3.org/2000/svg">
<rect x="1.59627" y="0.540857" width="359.619" height="64.3985" rx="29" transform="matrix(0.968684 -0.208252 0.62759 0.749109 854.619 75.7759)" stroke="white" stroke-width="2"/>
<rect x="1.59627" y="0.540857" width="359.619" height="64.3985" rx="29" transform="matrix(0.968684 -0.208252 0.62759 0.749109 185.543 428.697)" stroke="white" stroke-width="2"/>
<path d="M325.791 414.19L321.23 415.097L323.515 417.621L327.885 416.752L328.771 417.73L324.401 418.599L327.392 421.902L326.023 422.174L318.976 414.39L324.905 413.211L325.791 414.19ZM330.568 415.811C330.366 415.038 330.819 414.541 331.927 414.321L332.843 415.332C332.195 415.435 331.77 415.668 331.567 416.032C331.365 416.396 331.538 416.882 332.089 417.49L334.757 420.437L333.477 420.691L328.443 415.132L329.723 414.877L330.568 415.811ZM336.685 417.298C337.262 417.769 337.91 418.095 338.629 418.275C339.358 418.454 340.071 418.474 340.767 418.336C341.738 418.143 342.2 417.731 342.151 417.103L343.662 417.353C343.705 418.333 343.005 418.966 341.564 419.253C340.396 419.485 339.197 419.4 337.964 418.998C336.735 418.587 335.738 417.958 334.973 417.113C334.214 416.276 333.941 415.508 334.154 414.809C334.367 414.111 335.042 413.648 336.179 413.422C337.258 413.208 338.398 413.322 339.598 413.766C340.802 414.2 341.769 414.821 342.501 415.629C342.628 415.77 342.744 415.917 342.849 416.071L336.685 417.298ZM337.005 414.334C336.318 414.471 335.884 414.732 335.701 415.118C335.512 415.497 335.585 415.942 335.92 416.452L340.834 415.475C340.249 414.97 339.612 414.625 338.922 414.438C338.233 414.252 337.594 414.217 337.005 414.334ZM341.176 411.405C340.931 411.454 340.668 411.432 340.387 411.339C340.106 411.246 339.885 411.11 339.724 410.933C339.563 410.755 339.509 410.586 339.561 410.427C339.607 410.26 339.753 410.153 339.998 410.104C340.233 410.057 340.495 410.084 340.782 410.184C341.063 410.277 341.284 410.412 341.445 410.59C341.606 410.768 341.661 410.937 341.608 411.096C341.555 411.255 341.411 411.358 341.176 411.405ZM346.479 418.105L341.445 412.545L342.725 412.291L347.759 417.85L346.479 418.105ZM350.783 410.688L352.048 410.436L356.871 415.762C357.616 416.585 357.825 417.296 357.499 417.894C357.18 418.5 356.505 418.906 355.475 419.11C354.651 419.274 353.833 419.297 353.02 419.179C352.213 419.068 351.46 418.824 350.76 418.447L351.445 417.747C352.411 418.29 353.492 418.442 354.689 418.204C355.454 418.052 355.915 417.781 356.071 417.391C356.237 416.999 356.082 416.54 355.605 416.014L354.891 415.225C354.914 416.095 354.328 416.649 353.132 416.887C352.082 417.095 350.939 416.99 349.704 416.571C348.468 416.152 347.484 415.539 346.752 414.731C346.021 413.923 345.766 413.169 345.988 412.468C346.204 411.761 346.837 411.302 347.886 411.094C349.092 410.854 350.347 411.037 351.649 411.644L350.783 410.688ZM350.061 415.739C350.904 416.018 351.698 416.083 352.443 415.934C353.188 415.786 353.64 415.473 353.798 414.996C353.956 414.518 353.78 413.998 353.27 413.434C352.766 412.878 352.093 412.461 351.251 412.183C350.408 411.904 349.614 411.839 348.869 411.987C348.124 412.135 347.672 412.448 347.514 412.926C347.356 413.403 347.529 413.92 348.032 414.476C348.542 415.04 349.219 415.461 350.061 415.739ZM357.52 409.177C358.383 409.006 359.262 409.076 360.158 409.387C361.047 409.692 361.81 410.196 362.448 410.9L365.539 414.314L364.259 414.568L361.218 411.21C360.809 410.758 360.331 410.442 359.786 410.262C359.234 410.074 358.674 410.037 358.105 410.15C357.468 410.277 357.09 410.531 356.973 410.913C356.849 411.288 357.069 411.786 357.633 412.409L360.301 415.356L359.021 415.61L351.974 407.827L353.254 407.572L355.992 410.597C355.941 409.863 356.451 409.39 357.52 409.177ZM367.139 408.537L365.182 408.926L367.91 411.939C368.159 412.214 368.405 412.396 368.65 412.488C368.898 412.57 369.172 412.585 369.473 412.534C369.767 412.475 370.124 412.396 370.542 412.295L371.327 413.162C370.31 413.496 369.43 413.592 368.689 413.451C367.941 413.302 367.255 412.883 366.631 412.194L363.902 409.181L362.446 409.47L361.6 408.536L363.056 408.247L361.909 406.979L362.927 406.435L364.336 407.992L366.293 407.603L367.139 408.537ZM376.463 404.11L371.902 405.017L374.188 407.541L378.557 406.672L379.443 407.651L375.074 408.52L378.064 411.822L376.696 412.094L369.648 404.311L375.577 403.132L376.463 404.11ZM389.723 408.676C389.478 409.39 388.816 409.854 387.737 410.069C386.658 410.283 385.486 410.184 384.221 409.771C382.965 409.356 381.965 408.737 381.22 407.914C380.475 407.091 380.22 406.324 380.456 405.612C380.701 404.899 381.363 404.435 382.441 404.22C383.52 404.006 384.692 404.105 385.958 404.518C387.223 404.931 388.228 405.549 388.973 406.372C389.718 407.195 389.968 407.963 389.723 408.676ZM386.881 409.124C387.617 408.977 388.064 408.665 388.222 408.188C388.38 407.71 388.203 407.19 387.693 406.626C387.183 406.063 386.507 405.642 385.664 405.364C384.822 405.085 384.033 405.019 383.297 405.165C382.571 405.31 382.13 405.621 381.972 406.098C381.814 406.576 381.99 407.096 382.5 407.659C383.01 408.223 383.687 408.644 384.529 408.922C385.372 409.201 386.156 409.268 386.881 409.124ZM396.343 401.625L397.682 401.359L400.435 407.372L399.126 407.633L393.68 403.861L395.684 408.318L394.374 408.578L387.06 403.472L388.399 403.206L393.843 407.109L391.753 402.539L392.989 402.293L398.561 406.184L396.343 401.625ZM404.802 399.943L406.082 399.688L411.116 405.248L409.836 405.502L408.97 404.546C408.997 405.407 408.403 405.958 407.187 406.2C406.157 406.405 405.024 406.298 403.788 405.879C402.545 405.452 401.555 404.831 400.817 404.016C400.078 403.201 399.817 402.439 400.033 401.731C400.242 401.016 400.861 400.556 401.891 400.351C403.107 400.109 404.366 400.292 405.668 400.899L404.802 399.943ZM406.503 405.234C407.248 405.086 407.7 404.773 407.858 404.295C408.009 403.81 407.829 403.286 407.319 402.723C406.809 402.159 406.133 401.738 405.29 401.46C404.441 401.174 403.644 401.105 402.898 401.253C402.163 401.4 401.719 401.715 401.568 402.2C401.41 402.678 401.587 403.198 402.097 403.761C402.607 404.325 403.286 404.75 404.136 405.035C404.978 405.314 405.767 405.38 406.503 405.234ZM410.147 399.982C409.945 399.209 410.397 398.712 411.506 398.491L412.422 399.503C411.774 399.606 411.349 399.839 411.146 400.203C410.943 400.567 411.117 401.053 411.667 401.661L414.335 404.607L413.055 404.862L408.021 399.303L409.301 399.048L410.147 399.982ZM416.524 394.987L417.803 394.732L424.851 402.516L423.571 402.77L422.705 401.814C422.732 402.675 422.138 403.226 420.922 403.468C419.892 403.673 418.759 403.566 417.523 403.147C416.28 402.72 415.29 402.099 414.552 401.284C413.813 400.469 413.552 399.707 413.768 398.999C413.977 398.284 414.596 397.824 415.626 397.619C416.842 397.377 418.101 397.56 419.403 398.167L416.524 394.987ZM420.238 402.502C420.983 402.354 421.435 402.041 421.593 401.563C421.744 401.078 421.564 400.554 421.054 399.991C420.544 399.427 419.868 399.006 419.025 398.728C418.176 398.442 417.379 398.373 416.633 398.521C415.898 398.667 415.454 398.983 415.303 399.468C415.145 399.946 415.321 400.466 415.831 401.029C416.342 401.593 417.021 402.017 417.87 402.303C418.713 402.582 419.502 402.648 420.238 402.502ZM421.487 395.43C421.242 395.479 420.979 395.457 420.698 395.364C420.417 395.271 420.197 395.136 420.035 394.958C419.874 394.78 419.82 394.611 419.873 394.452C419.919 394.285 420.064 394.178 420.309 394.129C420.545 394.082 420.806 394.109 421.094 394.209C421.375 394.302 421.596 394.437 421.757 394.615C421.918 394.793 421.972 394.962 421.919 395.121C421.867 395.28 421.723 395.383 421.487 395.43ZM426.79 402.13L421.756 396.57L423.036 396.316L428.07 401.875L426.79 402.13ZM428.521 395.054C429.384 394.883 430.264 394.953 431.159 395.264C432.048 395.569 432.812 396.073 433.449 396.777L436.54 400.191L435.26 400.445L432.22 397.087C431.81 396.635 431.333 396.319 430.788 396.139C430.236 395.951 429.676 395.914 429.107 396.027C428.469 396.154 428.092 396.408 427.975 396.79C427.851 397.165 428.071 397.663 428.635 398.286L431.303 401.232L430.023 401.487L424.989 395.927L426.269 395.673L426.994 396.473C426.943 395.74 427.452 395.267 428.521 395.054ZM439.398 393.061L440.664 392.81L445.486 398.136C446.231 398.958 446.441 399.669 446.114 400.268C445.795 400.874 445.12 401.279 444.091 401.484C443.267 401.648 442.448 401.67 441.635 401.552C440.829 401.441 440.076 401.198 439.376 400.821L440.061 400.12C441.027 400.663 442.108 400.815 443.304 400.577C444.069 400.425 444.53 400.154 444.687 399.764C444.853 399.373 444.697 398.914 444.221 398.387L443.506 397.598C443.53 398.468 442.944 399.022 441.747 399.26C440.698 399.469 439.555 399.364 438.319 398.945C437.083 398.526 436.099 397.912 435.368 397.104C434.636 396.296 434.382 395.542 434.604 394.842C434.82 394.134 435.452 393.676 436.502 393.467C437.708 393.227 438.962 393.41 440.264 394.018L439.398 393.061ZM438.677 398.112C439.519 398.391 440.313 398.456 441.059 398.308C441.804 398.16 442.256 397.847 442.413 397.369C442.571 396.892 442.395 396.371 441.885 395.808C441.382 395.252 440.709 394.834 439.866 394.556C439.024 394.277 438.23 394.212 437.484 394.36C436.739 394.509 436.287 394.822 436.129 395.299C435.972 395.777 436.144 396.294 436.648 396.849C437.158 397.413 437.834 397.834 438.677 398.112Z" fill="white"/>
<path d="M241.85 349.018C240.29 349.328 238.648 349.195 236.923 348.62C235.208 348.043 233.837 347.187 232.811 346.053C231.784 344.919 231.423 343.862 231.728 342.883C232.044 341.901 232.981 341.256 234.54 340.945C235.482 340.758 236.499 340.757 237.593 340.942C238.696 341.125 239.73 341.461 240.695 341.952L239.976 342.712C239.293 342.34 238.543 342.087 237.726 341.952C236.913 341.808 236.153 341.806 235.446 341.946C234.26 342.182 233.551 342.664 233.319 343.393C233.097 344.119 233.379 344.916 234.164 345.783C234.943 346.643 235.966 347.288 237.235 347.718C238.514 348.146 239.747 348.242 240.934 348.006C241.64 347.866 242.168 347.612 242.518 347.245C242.872 346.868 243.005 346.439 242.916 345.958L244.571 346.233C244.663 346.897 244.47 347.482 243.991 347.988C243.505 348.487 242.791 348.831 241.85 349.018ZM247.664 341.13L248.944 340.875L253.978 346.435L252.698 346.69L251.973 345.889C252.023 346.622 251.514 347.095 250.445 347.308C249.582 347.48 248.706 347.413 247.817 347.109C246.921 346.797 246.155 346.29 245.517 345.585L242.426 342.172L243.706 341.917L246.747 345.275C247.156 345.727 247.637 346.047 248.189 346.235C248.734 346.415 249.291 346.449 249.86 346.335C250.497 346.209 250.878 345.958 251.002 345.583C251.119 345.202 250.895 344.699 250.332 344.077L247.664 341.13ZM253.34 341.772C253.535 341.987 253.835 342.133 254.24 342.21C254.639 342.279 255.076 342.315 255.552 342.316C256.021 342.311 256.504 342.32 257 342.343C257.489 342.36 257.987 342.462 258.493 342.65C258.992 342.831 259.413 343.11 259.755 343.488C260.212 343.992 260.317 344.448 260.073 344.855C259.838 345.26 259.319 345.543 258.514 345.703C257.798 345.846 257.078 345.849 256.353 345.713C255.628 345.577 254.98 345.334 254.409 344.985L255.079 344.287C255.438 344.53 255.85 344.698 256.315 344.789C256.78 344.88 257.238 344.881 257.689 344.791C258.11 344.707 258.405 344.579 258.572 344.406C258.733 344.225 258.695 344.005 258.461 343.746C258.266 343.531 257.969 343.388 257.571 343.319C257.166 343.242 256.728 343.207 256.259 343.212C255.783 343.211 255.297 343.198 254.801 343.174C254.305 343.151 253.807 343.048 253.308 342.868C252.809 342.687 252.391 342.412 252.056 342.041C251.62 341.559 251.506 341.114 251.714 340.705C251.932 340.294 252.414 340.014 253.16 339.866C253.758 339.747 254.382 339.746 255.03 339.861C255.682 339.968 256.291 340.179 256.855 340.496L256.194 341.165C255.499 340.744 254.76 340.611 253.975 340.767C253.612 340.839 253.364 340.967 253.23 341.151C253.089 341.328 253.126 341.535 253.34 341.772ZM262.176 339.346L260.219 339.735L262.948 342.748C263.196 343.022 263.443 343.205 263.687 343.296C263.935 343.378 264.209 343.394 264.51 343.343C264.805 343.284 265.161 343.204 265.579 343.104L266.364 343.971C265.347 344.305 264.467 344.401 263.726 344.26C262.978 344.111 262.292 343.692 261.668 343.003L258.939 339.989L257.483 340.279L256.637 339.345L258.094 339.055L256.946 337.788L257.964 337.244L259.373 338.801L261.33 338.412L262.176 339.346ZM273.08 341.809C272.835 342.522 272.173 342.986 271.094 343.201C270.015 343.415 268.843 343.316 267.578 342.903C266.322 342.488 265.322 341.869 264.577 341.046C263.832 340.223 263.577 339.456 263.812 338.744C264.057 338.031 264.719 337.567 265.798 337.352C266.877 337.138 268.049 337.237 269.315 337.65C270.58 338.063 271.585 338.681 272.33 339.504C273.075 340.327 273.325 341.095 273.08 341.809ZM270.238 342.256C270.974 342.109 271.421 341.797 271.579 341.32C271.736 340.842 271.56 340.322 271.05 339.759C270.54 339.195 269.864 338.774 269.021 338.496C268.179 338.217 267.39 338.151 266.654 338.297C265.928 338.442 265.486 338.753 265.329 339.23C265.171 339.708 265.347 340.228 265.857 340.792C266.367 341.355 267.043 341.776 267.886 342.054C268.728 342.333 269.513 342.4 270.238 342.256ZM279.135 334.699C279.959 334.535 280.811 334.607 281.69 334.913C282.562 335.212 283.311 335.706 283.935 336.395L287.066 339.853L285.786 340.108L282.685 336.683C282.296 336.253 281.847 335.949 281.338 335.77C280.829 335.591 280.329 335.551 279.839 335.648C279.289 335.758 278.976 335.986 278.897 336.334C278.822 336.673 279.043 337.128 279.56 337.699L282.358 340.79L281.078 341.044L277.978 337.62C277.588 337.19 277.144 336.884 276.645 336.704C276.155 336.521 275.67 336.478 275.19 336.573C274.65 336.68 274.327 336.911 274.219 337.265C274.121 337.617 274.327 338.074 274.837 338.638L277.636 341.729L276.356 341.984L271.322 336.424L272.602 336.169L273.276 336.914C273.24 336.222 273.702 335.78 274.663 335.589C275.654 335.392 276.66 335.563 277.682 336.104C277.621 335.372 278.106 334.904 279.135 334.699ZM286.269 335.222C286.464 335.437 286.764 335.583 287.169 335.66C287.568 335.729 288.005 335.765 288.481 335.766C288.95 335.761 289.433 335.77 289.929 335.793C290.418 335.81 290.916 335.912 291.422 336.1C291.921 336.281 292.342 336.56 292.684 336.938C293.141 337.442 293.247 337.898 293.002 338.305C292.767 338.71 292.248 338.993 291.443 339.153C290.727 339.296 290.007 339.299 289.282 339.163C288.557 339.027 287.909 338.784 287.338 338.434L288.008 337.737C288.368 337.98 288.78 338.148 289.244 338.239C289.709 338.33 290.167 338.331 290.618 338.241C291.04 338.157 291.334 338.029 291.501 337.856C291.662 337.675 291.625 337.455 291.39 337.196C291.195 336.981 290.898 336.838 290.5 336.769C290.095 336.692 289.657 336.657 289.188 336.662C288.712 336.661 288.226 336.648 287.73 336.624C287.234 336.601 286.736 336.498 286.237 336.318C285.738 336.137 285.32 335.861 284.985 335.491C284.549 335.009 284.435 334.564 284.643 334.155C284.861 333.744 285.343 333.464 286.089 333.316C286.687 333.197 287.311 333.196 287.96 333.311C288.612 333.418 289.22 333.629 289.784 333.946L289.123 334.615C288.428 334.194 287.689 334.061 286.904 334.217C286.541 334.289 286.293 334.417 286.159 334.601C286.018 334.778 286.055 334.985 286.269 335.222ZM304.36 336.584C302.801 336.894 301.159 336.761 299.434 336.186C297.719 335.608 296.348 334.753 295.321 333.619C294.294 332.484 293.934 331.428 294.239 330.448C294.554 329.467 295.492 328.821 297.051 328.511C297.993 328.324 299.01 328.323 300.103 328.508C301.207 328.691 302.241 329.027 303.206 329.518L302.487 330.277C301.804 329.906 301.053 329.653 300.237 329.518C299.423 329.373 298.663 329.372 297.957 329.512C296.77 329.748 296.061 330.23 295.83 330.959C295.608 331.685 295.889 332.482 296.675 333.349C297.453 334.209 298.477 334.854 299.746 335.284C301.025 335.712 302.257 335.808 303.444 335.572C304.15 335.431 304.679 335.178 305.029 334.81C305.383 334.434 305.515 334.005 305.427 333.524L307.082 333.799C307.174 334.463 306.98 335.048 306.501 335.554C306.016 336.053 305.302 336.396 304.36 336.584ZM310.133 335.265L302.783 327.148L304.063 326.893L311.413 335.01L310.133 335.265ZM312.148 332.108C312.726 332.58 313.374 332.906 314.093 333.086C314.822 333.265 315.535 333.285 316.231 333.147C317.202 332.953 317.663 332.542 317.614 331.913L319.126 332.164C319.168 333.144 318.469 333.777 317.027 334.064C315.86 334.296 314.66 334.211 313.428 333.809C312.199 333.397 311.202 332.769 310.436 331.924C309.678 331.086 309.405 330.318 309.618 329.62C309.83 328.922 310.505 328.459 311.643 328.233C312.722 328.018 313.861 328.133 315.062 328.577C316.265 329.011 317.233 329.632 317.964 330.44C318.092 330.581 318.208 330.728 318.313 330.882L312.148 332.108ZM312.469 329.145C311.782 329.281 311.347 329.543 311.165 329.929C310.975 330.308 311.048 330.753 311.383 331.263L316.297 330.286C315.713 329.781 315.076 329.435 314.386 329.249C313.696 329.063 313.057 329.028 312.469 329.145ZM322.985 326.148L324.265 325.893L329.299 331.453L328.019 331.707L327.153 330.751C327.18 331.612 326.585 332.163 325.369 332.405C324.339 332.61 323.206 332.503 321.971 332.084C320.728 331.657 319.737 331.036 318.999 330.221C318.261 329.405 317.999 328.644 318.215 327.936C318.424 327.221 319.043 326.761 320.073 326.556C321.289 326.314 322.549 326.497 323.851 327.104L322.985 326.148ZM324.685 331.439C325.431 331.29 325.882 330.977 326.04 330.5C326.191 330.015 326.012 329.491 325.502 328.927C324.992 328.364 324.315 327.943 323.473 327.665C322.624 327.379 321.826 327.31 321.081 327.458C320.345 327.604 319.902 327.92 319.751 328.405C319.593 328.882 319.769 329.403 320.279 329.966C320.789 330.53 321.469 330.954 322.318 331.24C323.161 331.519 323.95 331.585 324.685 331.439ZM328.329 326.187C328.127 325.413 328.58 324.917 329.688 324.696L330.604 325.708C329.957 325.811 329.531 326.044 329.328 326.408C329.126 326.772 329.299 327.258 329.85 327.866L332.518 330.812L331.238 331.067L326.204 325.507L327.484 325.253L328.329 326.187ZM336.72 323.416L337.999 323.161L343.033 328.721L341.754 328.975L340.888 328.019C340.915 328.88 340.32 329.431 339.104 329.673C338.074 329.878 336.941 329.771 335.705 329.352C334.463 328.925 333.472 328.304 332.734 327.489C331.996 326.673 331.734 325.912 331.95 325.204C332.159 324.489 332.778 324.029 333.808 323.824C335.024 323.582 336.283 323.765 337.585 324.372L336.72 323.416ZM338.42 328.707C339.165 328.558 339.617 328.245 339.775 327.768C339.926 327.283 339.747 326.759 339.237 326.195C338.726 325.632 338.05 325.211 337.208 324.933C336.358 324.647 335.561 324.578 334.816 324.726C334.08 324.872 333.637 325.188 333.486 325.673C333.328 326.15 333.504 326.671 334.014 327.234C334.524 327.798 335.204 328.222 336.053 328.508C336.895 328.787 337.684 328.853 338.42 328.707ZM343.471 321.902C344.334 321.73 345.213 321.8 346.109 322.112C346.998 322.416 347.761 322.921 348.399 323.625L351.49 327.038L350.21 327.293L347.17 323.935C346.76 323.483 346.283 323.167 345.738 322.986C345.186 322.799 344.625 322.762 344.057 322.875C343.419 323.002 343.042 323.256 342.925 323.638C342.801 324.012 343.021 324.511 343.585 325.134L346.253 328.08L344.973 328.335L339.939 322.775L341.219 322.521L341.943 323.321C341.893 322.588 342.402 322.115 343.471 321.902ZM356.865 326.14C355.757 326.36 354.583 326.266 353.344 325.856C352.098 325.439 351.1 324.815 350.348 323.985C349.596 323.155 349.336 322.389 349.569 321.686C349.794 320.977 350.461 320.512 351.569 320.291C352.295 320.147 353.068 320.151 353.888 320.302C354.702 320.447 355.452 320.713 356.139 321.101L355.488 321.782C355.033 321.522 354.529 321.343 353.976 321.243C353.432 321.141 352.915 321.139 352.425 321.236C351.689 321.383 351.243 321.695 351.085 322.172C350.937 322.648 351.118 323.167 351.628 323.731C352.131 324.287 352.799 324.705 353.632 324.985C354.474 325.264 355.263 325.33 355.999 325.184C356.489 325.086 356.854 324.913 357.092 324.665C357.323 324.409 357.407 324.112 357.345 323.774L358.866 324.036C358.948 324.536 358.816 324.978 358.469 325.362C358.116 325.738 357.581 325.998 356.865 326.14ZM359.99 322.592C360.568 323.063 361.216 323.389 361.935 323.57C362.664 323.749 363.377 323.769 364.073 323.63C365.044 323.437 365.505 323.026 365.456 322.397L366.968 322.648C367.01 323.628 366.311 324.261 364.869 324.548C363.702 324.78 362.502 324.695 361.27 324.293C360.041 323.881 359.044 323.253 358.278 322.408C357.52 321.57 357.247 320.802 357.46 320.104C357.672 319.405 358.347 318.943 359.485 318.717C360.564 318.502 361.703 318.617 362.904 319.06C364.107 319.494 365.075 320.116 365.806 320.924C365.934 321.064 366.05 321.212 366.155 321.366L359.99 322.592ZM360.311 319.628C359.624 319.765 359.189 320.026 359.007 320.413C358.817 320.792 358.89 321.236 359.225 321.747L364.139 320.77C363.555 320.265 362.918 319.919 362.228 319.733C361.538 319.546 360.899 319.511 360.311 319.628Z" fill="white"/>
<path d="M1015.13 80.1882C1014.17 80.3794 1013.19 80.3727 1012.2 80.1683C1011.21 79.9619 1010.31 79.5896 1009.5 79.0512L1010.21 78.3056C1011.47 79.167 1012.81 79.4553 1014.24 79.1705C1014.95 79.03 1015.39 78.8152 1015.57 78.5261C1015.74 78.2296 1015.66 77.8997 1015.33 77.5365C1015 77.1659 1014.56 76.925 1014.02 76.8138C1013.48 76.7026 1012.68 76.63 1011.62 76.5961C1011.09 76.5782 1010.69 76.562 1010.41 76.5476C1010.12 76.5257 1009.75 76.4859 1009.3 76.4282C1008.84 76.3611 1008.47 76.2774 1008.18 76.1772C1007.89 76.0695 1007.57 75.9181 1007.23 75.723C1006.9 75.526 1006.61 75.2867 1006.36 75.005C1005.75 74.3304 1005.58 73.7343 1005.85 73.2165C1006.11 72.6914 1006.7 72.3391 1007.6 72.1596C1008.41 71.9977 1009.26 72.0129 1010.14 72.2052C1011.03 72.3956 1011.86 72.7163 1012.63 73.1673L1011.93 73.8959C1010.77 73.1831 1009.62 72.9379 1008.51 73.1603C1007.95 73.2715 1007.59 73.465 1007.43 73.7409C1007.28 74.0167 1007.36 74.3325 1007.69 74.6883C1007.99 75.0293 1008.39 75.2566 1008.88 75.3701C1009.36 75.4836 1010.09 75.5578 1011.06 75.5925C1011.4 75.6026 1011.65 75.6108 1011.79 75.617C1011.93 75.6233 1012.16 75.6391 1012.48 75.6644C1012.8 75.6878 1013.04 75.7101 1013.2 75.7311C1013.35 75.7522 1013.57 75.784 1013.84 75.8265C1014.12 75.8671 1014.34 75.9147 1014.5 75.9693C1014.67 76.0239 1014.87 76.0941 1015.09 76.18C1015.33 76.2564 1015.52 76.3444 1015.68 76.4439C1015.84 76.5434 1016.01 76.6633 1016.18 76.8038C1016.36 76.9349 1016.52 77.082 1016.67 77.2451C1017.28 77.927 1017.45 78.5372 1017.16 79.0756C1016.87 79.6066 1016.19 79.9775 1015.13 80.1882ZM1019.65 73.6609L1017.69 74.0501L1020.42 77.0633C1020.67 77.3376 1020.91 77.5204 1021.16 77.6117C1021.4 77.6936 1021.68 77.709 1021.98 77.6579C1022.27 77.5994 1022.63 77.5198 1023.05 77.4191L1023.83 78.2864C1022.82 78.62 1021.94 78.7162 1021.2 78.575C1020.45 78.4263 1019.76 78.0073 1019.14 77.3179L1016.41 74.3047L1014.95 74.5944L1014.11 73.6604L1015.56 73.3707L1014.42 72.1031L1015.43 71.5594L1016.84 73.1161L1018.8 72.7269L1019.65 73.6609ZM1023.76 75.5458C1024.34 76.0171 1024.98 76.343 1025.7 76.5237C1026.43 76.7023 1027.14 76.7224 1027.84 76.5839C1028.81 76.3908 1029.27 75.9797 1029.22 75.3508L1030.74 75.6013C1030.78 76.5813 1030.08 77.2147 1028.64 77.5015C1027.47 77.7337 1026.27 77.6486 1025.04 77.2464C1023.81 76.8348 1022.81 76.2065 1022.05 75.3615C1021.29 74.5238 1021.01 73.7558 1021.23 73.0574C1021.44 72.3591 1022.12 71.8967 1023.25 71.6704C1024.33 71.4558 1025.47 71.5703 1026.67 72.0139C1027.88 72.4481 1028.84 73.0692 1029.57 73.8772C1029.7 74.0181 1029.82 74.1655 1029.92 74.3196L1023.76 75.5458ZM1024.08 72.5822C1023.39 72.7188 1022.96 72.9802 1022.77 73.3664C1022.59 73.7453 1022.66 74.19 1022.99 74.7007L1027.91 73.7233C1027.32 73.2185 1026.69 72.8728 1026 72.6863C1025.31 72.4999 1024.67 72.4651 1024.08 72.5822ZM1033.38 69.8266L1034.76 69.5515L1036.85 75.6963L1035.35 75.9948L1027.38 71.0205L1028.76 70.7455L1035.17 74.8115L1033.38 69.8266ZM1039.38 72.4394C1039.95 72.9107 1040.6 73.2366 1041.32 73.4173C1042.05 73.5959 1042.76 73.616 1043.46 73.4775C1044.43 73.2844 1044.89 72.8733 1044.84 72.2444L1046.35 72.4949C1046.4 73.4749 1045.7 74.1083 1044.25 74.3951C1043.09 74.6273 1041.89 74.5423 1040.65 74.14C1039.43 73.7284 1038.43 73.1001 1037.66 72.2551C1036.9 71.4174 1036.63 70.6494 1036.84 69.9511C1037.06 69.2527 1037.73 68.7903 1038.87 68.564C1039.95 68.3494 1041.09 68.4639 1042.29 68.9075C1043.49 69.3417 1044.46 69.9628 1045.19 70.7708C1045.32 70.9117 1045.43 71.0591 1045.54 71.2132L1039.38 72.4394ZM1039.7 69.4758C1039.01 69.6124 1038.57 69.8738 1038.39 70.26C1038.2 70.6389 1038.28 71.0836 1038.61 71.5943L1043.52 70.6169C1042.94 70.1121 1042.3 69.7664 1041.61 69.5799C1040.92 69.3935 1040.28 69.3588 1039.7 69.4758ZM1048.2 64.2548L1049.48 64.0002L1056.53 71.7836L1055.25 72.0382L1054.38 71.0819C1054.41 71.9426 1053.81 72.4939 1052.6 72.7358C1051.57 72.9406 1050.43 72.8336 1049.2 72.4146C1047.95 71.9881 1046.96 71.3672 1046.23 70.5518C1045.49 69.7364 1045.23 68.9749 1045.44 68.2671C1045.65 67.552 1046.27 67.092 1047.3 66.8871C1048.52 66.6452 1049.78 66.8278 1051.08 67.4349L1048.2 64.2548ZM1051.91 71.7696C1052.66 71.6213 1053.11 71.3084 1053.27 70.8309C1053.42 70.3459 1053.24 69.8218 1052.73 69.2584C1052.22 68.695 1051.54 68.2741 1050.7 67.9955C1049.85 67.7095 1049.05 67.6407 1048.31 67.789C1047.57 67.9353 1047.13 68.2509 1046.98 68.7359C1046.82 69.2134 1047 69.7339 1047.51 70.2972C1048.02 70.8606 1048.7 71.2853 1049.54 71.5712C1050.39 71.8498 1051.18 71.9159 1051.91 71.7696ZM1064.04 69.4624C1063.79 70.176 1063.13 70.6401 1062.05 70.8547C1060.97 71.0693 1059.8 70.97 1058.54 70.5569C1057.28 70.1418 1056.28 69.5228 1055.54 68.7C1054.79 67.8772 1054.54 67.11 1054.77 66.3983C1055.02 65.6847 1055.68 65.2207 1056.76 65.0061C1057.84 64.7915 1059.01 64.8907 1060.27 65.3039C1061.54 65.717 1062.54 66.335 1063.29 67.1578C1064.03 67.9806 1064.28 68.7488 1064.04 69.4624ZM1061.2 69.9096C1061.93 69.7633 1062.38 69.4513 1062.54 68.9738C1062.7 68.4962 1062.52 67.9758 1062.01 67.4124C1061.5 66.849 1060.82 66.4281 1059.98 66.1495C1059.14 65.871 1058.35 65.8049 1057.61 65.9512C1056.89 66.0955 1056.45 66.4065 1056.29 66.884C1056.13 67.3616 1056.31 67.882 1056.82 68.4454C1057.33 69.0088 1058 69.4297 1058.84 69.7083C1059.69 69.9868 1060.47 70.0539 1061.2 69.9096ZM1064.41 64.7573C1064.2 63.984 1064.66 63.4872 1065.77 63.2667L1066.68 64.2786C1066.03 64.3812 1065.61 64.6145 1065.41 64.9785C1065.2 65.3425 1065.38 65.8285 1065.93 66.4363L1068.59 69.3829L1067.31 69.6375L1062.28 64.0779L1063.56 63.8233L1064.41 64.7573ZM1066.84 61.9771C1066.59 62.0259 1066.33 62.0038 1066.05 61.911C1065.77 61.8181 1065.55 61.6828 1065.39 61.5048C1065.23 61.3269 1065.17 61.1584 1065.22 60.9992C1065.27 60.8326 1065.42 60.7249 1065.66 60.6762C1065.9 60.6293 1066.16 60.6561 1066.45 60.7563C1066.73 60.8492 1066.95 60.9846 1067.11 61.1625C1067.27 61.3404 1067.32 61.5089 1067.27 61.6681C1067.22 61.8273 1067.07 61.9303 1066.84 61.9771ZM1072.14 68.6772L1067.11 63.1177L1068.39 62.8631L1073.42 68.4227L1072.14 68.6772ZM1073.87 61.6015C1074.74 61.4298 1075.62 61.4998 1076.51 61.8115C1077.4 62.1158 1078.16 62.6201 1078.8 63.3243L1081.89 66.7379L1080.61 66.9925L1077.57 63.6345C1077.16 63.1823 1076.68 62.8661 1076.14 62.6859C1075.59 62.4982 1075.03 62.461 1074.46 62.5741C1073.82 62.7009 1073.44 62.9553 1073.33 63.3373C1073.2 63.7118 1073.42 64.2104 1073.99 64.8331L1076.65 67.7797L1075.37 68.0342L1070.34 62.4747L1071.62 62.2201L1072.35 63.0207C1072.29 62.2872 1072.8 61.8141 1073.87 61.6015ZM1084.75 59.6085L1086.02 59.3568L1090.84 64.6829C1091.58 65.5057 1091.79 66.2163 1091.47 66.8148C1091.15 67.4207 1090.47 67.8261 1089.44 68.0309C1088.62 68.1948 1087.8 68.2177 1086.99 68.0995C1086.18 67.9887 1085.43 67.7448 1084.73 67.368L1085.41 66.6674C1086.38 67.2101 1087.46 67.3625 1088.66 67.1244C1089.42 66.9723 1089.88 66.7013 1090.04 66.3115C1090.2 65.9198 1090.05 65.4608 1089.57 64.9345L1088.86 64.1451C1088.88 65.0151 1088.3 65.5691 1087.1 65.8071C1086.05 66.0159 1084.91 65.9107 1083.67 65.4917C1082.43 65.0727 1081.45 64.4593 1080.72 63.6513C1079.99 62.8433 1079.73 62.0891 1079.96 61.3888C1080.17 60.6811 1080.8 60.2228 1081.85 60.0141C1083.06 59.7741 1084.31 59.9577 1085.62 60.5647L1084.75 59.6085ZM1084.03 64.6596C1084.87 64.9381 1085.66 65.0032 1086.41 64.855C1087.16 64.7067 1087.61 64.3938 1087.77 63.9163C1087.92 63.4387 1087.75 62.9183 1087.24 62.3549C1086.73 61.7989 1086.06 61.3817 1085.22 61.1031C1084.38 60.8246 1083.58 60.7594 1082.84 60.9077C1082.09 61.056 1081.64 61.3689 1081.48 61.8464C1081.32 62.324 1081.5 62.8407 1082 63.3967C1082.51 63.96 1083.19 64.381 1084.03 64.6596Z" fill="white"/>
<rect x="1.59627" y="0.540857" width="359.619" height="64.3985" rx="29" transform="matrix(0.968684 -0.208252 0.62759 0.749109 112.619 341.652)" stroke="white" stroke-width="2"/>
<rect x="1.59627" y="0.540857" width="359.619" height="64.3985" rx="29" transform="matrix(0.968684 -0.208252 0.62759 0.749109 258.467 515.741)" stroke="white" stroke-width="2"/>
<path d="M347.532 527.402C345.973 527.712 344.331 527.579 342.606 527.004C340.891 526.427 339.52 525.571 338.493 524.437C337.466 523.303 337.105 522.246 337.411 521.267C337.726 520.285 338.663 519.64 340.223 519.329C341.164 519.142 342.182 519.141 343.275 519.326C344.378 519.509 345.412 519.845 346.377 520.336L345.659 521.096C344.975 520.724 344.225 520.471 343.409 520.336C342.595 520.192 341.835 520.19 341.129 520.33C339.942 520.566 339.233 521.048 339.001 521.777C338.779 522.503 339.061 523.3 339.846 524.167C340.625 525.027 341.649 525.672 342.918 526.102C344.196 526.53 345.429 526.626 346.616 526.39C347.322 526.25 347.85 525.996 348.201 525.629C348.554 525.252 348.687 524.823 348.599 524.342L350.254 524.617C350.345 525.281 350.152 525.866 349.673 526.372C349.187 526.871 348.474 527.215 347.532 527.402ZM358.807 524.162C358.562 524.876 357.9 525.34 356.821 525.554C355.742 525.769 354.57 525.67 353.305 525.256C352.049 524.841 351.049 524.222 350.304 523.4C349.559 522.577 349.304 521.81 349.539 521.098C349.784 520.384 350.446 519.92 351.525 519.706C352.604 519.491 353.776 519.59 355.041 520.003C356.307 520.417 357.312 521.035 358.057 521.857C358.802 522.68 359.052 523.448 358.807 524.162ZM355.965 524.609C356.701 524.463 357.147 524.151 357.305 523.673C357.463 523.196 357.287 522.675 356.777 522.112C356.267 521.549 355.59 521.128 354.748 520.849C353.905 520.571 353.116 520.504 352.381 520.651C351.655 520.795 351.213 521.106 351.055 521.584C350.897 522.061 351.074 522.582 351.584 523.145C352.094 523.708 352.77 524.129 353.613 524.408C354.455 524.686 355.239 524.753 355.965 524.609ZM360.581 517.904C361.444 517.733 362.324 517.803 363.219 518.114C364.108 518.419 364.872 518.923 365.509 519.627L368.6 523.041L367.32 523.295L364.28 519.937C363.87 519.485 363.393 519.169 362.848 518.989C362.296 518.801 361.735 518.764 361.167 518.877C360.529 519.004 360.152 519.258 360.035 519.64C359.911 520.015 360.131 520.513 360.695 521.136L363.363 524.082L362.083 524.337L357.049 518.777L358.329 518.523L359.054 519.323C359.003 518.59 359.512 518.117 360.581 517.904ZM370.2 517.264L368.243 517.653L370.972 520.666C371.22 520.94 371.467 521.123 371.711 521.215C371.959 521.296 372.234 521.312 372.535 521.261C372.829 521.202 373.185 521.123 373.603 521.022L374.388 521.889C373.371 522.223 372.492 522.319 371.75 522.178C371.002 522.029 370.316 521.61 369.692 520.921L366.964 517.907L365.507 518.197L364.661 517.263L366.118 516.973L364.97 515.706L365.988 515.162L367.398 516.719L369.354 516.33L370.2 517.264ZM376.587 514.891L377.867 514.636L382.901 520.196L381.621 520.451L380.755 519.494C380.782 520.355 380.187 520.906 378.971 521.148C377.941 521.353 376.809 521.246 375.573 520.827C374.33 520.401 373.34 519.78 372.601 518.964C371.863 518.149 371.602 517.387 371.817 516.68C372.026 515.964 372.646 515.504 373.675 515.3C374.892 515.058 376.151 515.24 377.453 515.847L376.587 514.891ZM378.287 520.182C379.033 520.034 379.484 519.721 379.642 519.243C379.793 518.758 379.614 518.234 379.104 517.671C378.594 517.107 377.917 516.687 377.075 516.408C376.226 516.122 375.428 516.053 374.683 516.201C373.947 516.348 373.504 516.663 373.353 517.148C373.195 517.626 373.371 518.146 373.881 518.71C374.391 519.273 375.071 519.698 375.92 519.984C376.763 520.262 377.552 520.328 378.287 520.182ZM379.537 513.11C379.292 513.159 379.029 513.137 378.748 513.044C378.467 512.951 378.246 512.816 378.085 512.638C377.924 512.46 377.87 512.291 377.922 512.132C377.968 511.966 378.114 511.858 378.359 511.809C378.595 511.762 378.856 511.789 379.144 511.889C379.424 511.982 379.645 512.118 379.806 512.296C379.968 512.473 380.022 512.642 379.969 512.801C379.917 512.96 379.773 513.063 379.537 513.11ZM384.84 519.81L379.806 514.251L381.086 513.996L386.12 519.556L384.84 519.81ZM386.571 512.735C387.434 512.563 388.313 512.633 389.209 512.945C390.098 513.249 390.861 513.753 391.499 514.457L394.59 517.871L393.31 518.126L390.269 514.768C389.86 514.315 389.383 513.999 388.838 513.819C388.286 513.631 387.725 513.594 387.156 513.707C386.519 513.834 386.142 514.088 386.025 514.47C385.901 514.845 386.121 515.343 386.684 515.966L389.353 518.913L388.073 519.167L383.039 513.608L384.318 513.353L385.043 514.154C384.993 513.42 385.502 512.947 386.571 512.735ZM395.16 515.002C395.737 515.473 396.385 515.799 397.104 515.98C397.833 516.159 398.546 516.179 399.242 516.04C400.213 515.847 400.674 515.436 400.626 514.807L402.137 515.057C402.18 516.038 401.48 516.671 400.038 516.958C398.871 517.19 397.672 517.105 396.439 516.703C395.21 516.291 394.213 515.663 393.448 514.818C392.689 513.98 392.416 513.212 392.629 512.514C392.841 511.815 393.517 511.353 394.654 511.127C395.733 510.912 396.873 511.027 398.073 511.47C399.276 511.904 400.244 512.525 400.976 513.333C401.103 513.474 401.219 513.622 401.324 513.776L395.16 515.002ZM395.48 512.038C394.793 512.175 394.359 512.436 394.176 512.823C393.987 513.201 394.06 513.646 394.395 514.157L399.308 513.18C398.724 512.675 398.087 512.329 397.397 512.143C396.707 511.956 396.068 511.921 395.48 512.038ZM402.045 510.929C401.843 510.156 402.296 509.659 403.404 509.439L404.32 510.451C403.672 510.553 403.247 510.786 403.044 511.15C402.841 511.514 403.015 512 403.566 512.608L406.234 515.555L404.954 515.809L399.92 510.25L401.2 509.995L402.045 510.929ZM413.135 504.997L414.021 505.975L410.975 506.581L417.137 513.386L415.783 513.655L409.622 506.85L406.591 507.453L405.705 506.475L413.135 504.997ZM418.851 510.29C419.428 510.761 420.076 511.087 420.795 511.267C421.524 511.446 422.237 511.466 422.933 511.328C423.904 511.135 424.366 510.723 424.317 510.095L425.828 510.345C425.871 511.325 425.171 511.958 423.73 512.245C422.562 512.477 421.363 512.392 420.13 511.99C418.901 511.579 417.904 510.95 417.139 510.105C416.38 509.268 416.107 508.5 416.32 507.801C416.533 507.103 417.208 506.64 418.345 506.414C419.424 506.2 420.564 506.314 421.764 506.758C422.968 507.192 423.935 507.813 424.667 508.621C424.794 508.762 424.91 508.909 425.015 509.063L418.851 510.29ZM419.171 507.326C418.485 507.463 418.05 507.724 417.867 508.11C417.678 508.489 417.751 508.934 418.086 509.444L423 508.467C422.415 507.962 421.778 507.617 421.088 507.43C420.399 507.244 419.76 507.209 419.171 507.326ZM425.737 506.217C425.534 505.444 425.987 504.947 427.095 504.726L428.011 505.738C427.364 505.841 426.938 506.074 426.735 506.438C426.533 506.802 426.706 507.288 427.257 507.896L429.925 510.842L428.645 511.097L423.611 505.537L424.891 505.283L425.737 506.217ZM436.252 502.852C437.076 502.689 437.927 502.76 438.806 503.066C439.679 503.365 440.427 503.859 441.051 504.548L444.182 508.006L442.902 508.261L439.802 504.836C439.412 504.406 438.963 504.102 438.454 503.923C437.945 503.745 437.445 503.704 436.955 503.802C436.406 503.911 436.092 504.14 436.013 504.488C435.938 504.826 436.159 505.281 436.676 505.852L439.475 508.943L438.195 509.197L435.094 505.773C434.704 505.343 434.26 505.037 433.761 504.857C433.272 504.674 432.787 504.631 432.306 504.726C431.767 504.834 431.443 505.064 431.335 505.418C431.237 505.77 431.443 506.228 431.953 506.791L434.752 509.882L433.472 510.137L428.438 504.577L429.718 504.323L430.393 505.068C430.356 504.375 430.818 503.933 431.779 503.742C432.77 503.545 433.776 503.717 434.798 504.257C434.737 503.525 435.222 503.057 436.252 502.852ZM440.654 500.953C440.409 501.002 440.146 500.98 439.865 500.887C439.584 500.794 439.363 500.659 439.202 500.481C439.041 500.303 438.987 500.134 439.04 499.975C439.085 499.809 439.231 499.701 439.476 499.652C439.712 499.605 439.973 499.632 440.261 499.732C440.541 499.825 440.762 499.961 440.924 500.139C441.085 500.316 441.139 500.485 441.086 500.644C441.034 500.803 440.89 500.906 440.654 500.953ZM445.957 507.653L440.923 502.094L442.203 501.839L447.237 507.399L445.957 507.653ZM447.688 500.578C448.551 500.406 449.43 500.476 450.326 500.788C451.215 501.092 451.978 501.596 452.616 502.3L455.707 505.714L454.427 505.969L451.387 502.611C450.977 502.158 450.5 501.842 449.955 501.662C449.403 501.474 448.842 501.437 448.274 501.55C447.636 501.677 447.259 501.931 447.142 502.313C447.018 502.688 447.238 503.187 447.802 503.809L450.47 506.756L449.19 507.01L444.156 501.451L445.436 501.196L446.16 501.997C446.11 501.263 446.619 500.79 447.688 500.578ZM458.55 498.587L459.83 498.333L464.864 503.892L463.584 504.147L462.719 503.191C462.746 504.051 462.151 504.603 460.935 504.845C459.905 505.05 458.772 504.942 457.536 504.523C456.294 504.097 455.303 503.476 454.565 502.661C453.827 501.845 453.565 501.084 453.781 500.376C453.99 499.661 454.609 499.201 455.639 498.996C456.855 498.754 458.114 498.937 459.416 499.544L458.55 498.587ZM460.251 503.878C460.996 503.73 461.448 503.417 461.606 502.94C461.757 502.455 461.578 501.931 461.067 501.367C460.557 500.804 459.881 500.383 459.039 500.104C458.189 499.818 457.392 499.75 456.647 499.898C455.911 500.044 455.468 500.36 455.316 500.845C455.159 501.322 455.335 501.843 455.845 502.406C456.355 502.969 457.035 503.394 457.884 503.68C458.726 503.959 459.515 504.025 460.251 503.878ZM466.804 503.507L459.454 495.39L460.734 495.135L468.084 503.252L466.804 503.507ZM476.435 492.406L483.483 500.189L482.129 500.458L476.622 494.376L477.089 499.283L476.912 499.318L469.718 495.763L475.215 501.834L473.847 502.106L466.799 494.322L468.344 494.015L475.35 497.477L474.89 492.713L476.435 492.406ZM486.609 493.006L487.889 492.752L492.923 498.311L491.643 498.566L490.777 497.61C490.804 498.47 490.21 499.022 488.994 499.263C487.964 499.468 486.831 499.361 485.595 498.942C484.352 498.516 483.362 497.895 482.624 497.08C481.885 496.264 481.624 495.503 481.84 494.795C482.049 494.08 482.668 493.62 483.698 493.415C484.914 493.173 486.173 493.355 487.475 493.963L486.609 493.006ZM488.31 498.297C489.055 498.149 489.507 497.836 489.665 497.359C489.816 496.874 489.636 496.349 489.126 495.786C488.616 495.223 487.94 494.802 487.097 494.523C486.248 494.237 485.451 494.168 484.705 494.317C483.97 494.463 483.526 494.779 483.375 495.264C483.217 495.741 483.393 496.262 483.903 496.825C484.414 497.388 485.093 497.813 485.942 498.099C486.785 498.377 487.574 498.444 488.31 498.297ZM493.361 491.493C494.224 491.321 495.103 491.391 495.999 491.703C496.888 492.007 497.651 492.511 498.289 493.216L501.38 496.629L500.1 496.884L497.059 493.526C496.65 493.074 496.172 492.757 495.627 492.577C495.075 492.389 494.515 492.352 493.946 492.465C493.309 492.592 492.931 492.847 492.814 493.229C492.69 493.603 492.91 494.102 493.474 494.724L496.142 497.671L494.862 497.926L489.828 492.366L491.108 492.111L491.833 492.912C491.782 492.178 492.292 491.705 493.361 491.493ZM504.223 489.503L505.503 489.248L510.537 494.808L509.257 495.062L508.391 494.106C508.418 494.967 507.824 495.518 506.607 495.76C505.578 495.965 504.445 495.858 503.209 495.439C501.966 495.012 500.976 494.391 500.237 493.576C499.499 492.76 499.238 491.999 499.453 491.291C499.662 490.576 500.282 490.116 501.312 489.911C502.528 489.669 503.787 489.852 505.089 490.459L504.223 489.503ZM505.924 494.794C506.669 494.645 507.121 494.332 507.278 493.855C507.43 493.37 507.25 492.846 506.74 492.282C506.23 491.719 505.554 491.298 504.711 491.02C503.862 490.734 503.065 490.665 502.319 490.813C501.584 490.959 501.14 491.275 500.989 491.76C500.831 492.237 501.007 492.758 501.517 493.321C502.027 493.885 502.707 494.309 503.556 494.595C504.399 494.874 505.188 494.94 505.924 494.794ZM513.548 487.648L514.813 487.396L519.635 492.722C520.38 493.545 520.59 494.256 520.264 494.854C519.944 495.46 519.27 495.866 518.24 496.07C517.416 496.234 516.597 496.257 515.784 496.139C514.978 496.028 514.225 495.784 513.525 495.407L514.21 494.707C515.176 495.25 516.257 495.402 517.454 495.164C518.219 495.012 518.679 494.741 518.836 494.351C519.002 493.959 518.847 493.5 518.37 492.974L517.655 492.184C517.679 493.055 517.093 493.609 515.896 493.847C514.847 494.055 513.704 493.95 512.468 493.531C511.232 493.112 510.249 492.499 509.517 491.691C508.785 490.883 508.531 490.129 508.753 489.428C508.969 488.72 509.601 488.262 510.651 488.053C511.857 487.814 513.111 487.997 514.413 488.604L513.548 487.648ZM512.826 492.699C513.668 492.978 514.462 493.043 515.208 492.894C515.953 492.746 516.405 492.433 516.563 491.956C516.721 491.478 516.544 490.958 516.034 490.394C515.531 489.838 514.858 489.421 514.015 489.143C513.173 488.864 512.379 488.799 511.634 488.947C510.888 489.095 510.437 489.408 510.279 489.886C510.121 490.363 510.294 490.88 510.797 491.436C511.307 491.999 511.983 492.42 512.826 492.699ZM520.569 490.057C521.146 490.528 521.794 490.854 522.514 491.034C523.243 491.213 523.955 491.233 524.652 491.095C525.623 490.902 526.084 490.49 526.035 489.862L527.547 490.112C527.589 491.092 526.889 491.725 525.448 492.012C524.281 492.244 523.081 492.159 521.849 491.757C520.619 491.346 519.622 490.717 518.857 489.872C518.099 489.035 517.826 488.267 518.038 487.568C518.251 486.87 518.926 486.407 520.064 486.181C521.142 485.967 522.282 486.081 523.482 486.525C524.686 486.959 525.653 487.58 526.385 488.388C526.512 488.529 526.629 488.676 526.733 488.83L520.569 490.057ZM520.889 487.093C520.203 487.23 519.768 487.491 519.585 487.877C519.396 488.256 519.469 488.701 519.804 489.211L524.718 488.234C524.133 487.729 523.496 487.384 522.806 487.197C522.117 487.011 521.478 486.976 520.889 487.093ZM533.143 483.58C533.966 483.416 534.818 483.487 535.697 483.793C536.57 484.092 537.318 484.586 537.942 485.276L541.073 488.734L539.793 488.988L536.692 485.563C536.303 485.134 535.854 484.829 535.345 484.651C534.836 484.472 534.336 484.431 533.846 484.529C533.297 484.638 532.983 484.867 532.904 485.215C532.829 485.553 533.05 486.008 533.567 486.579L536.365 489.67L535.086 489.925L531.985 486.5C531.595 486.07 531.151 485.765 530.652 485.584C530.162 485.401 529.677 485.358 529.197 485.454C528.657 485.561 528.334 485.791 528.226 486.145C528.128 486.497 528.334 486.955 528.844 487.518L531.643 490.609L530.363 490.864L525.329 485.304L526.609 485.05L527.284 485.795C527.247 485.102 527.709 484.66 528.67 484.469C529.661 484.272 530.667 484.444 531.689 484.984C531.628 484.253 532.113 483.784 533.143 483.58ZM541.631 485.867C542.208 486.338 542.856 486.664 543.576 486.845C544.305 487.024 545.017 487.044 545.714 486.905C546.684 486.712 547.146 486.301 547.097 485.672L548.609 485.923C548.651 486.903 547.951 487.536 546.51 487.823C545.343 488.055 544.143 487.97 542.911 487.568C541.681 487.156 540.684 486.528 539.919 485.683C539.161 484.845 538.888 484.077 539.1 483.379C539.313 482.68 539.988 482.218 541.126 481.992C542.204 481.777 543.344 481.892 544.544 482.335C545.748 482.769 546.715 483.39 547.447 484.198C547.574 484.339 547.691 484.487 547.795 484.641L541.631 485.867ZM541.951 482.903C541.265 483.04 540.83 483.301 540.647 483.688C540.458 484.067 540.531 484.511 540.866 485.022L545.78 484.045C545.195 483.54 544.558 483.194 543.868 483.008C543.179 482.821 542.54 482.786 541.951 482.903ZM549.923 480.242C550.786 480.07 551.666 480.14 552.562 480.452C553.451 480.756 554.214 481.26 554.851 481.965L557.942 485.378L556.662 485.633L553.622 482.275C553.212 481.823 552.735 481.506 552.19 481.326C551.638 481.138 551.078 481.101 550.509 481.214C549.871 481.341 549.494 481.596 549.377 481.977C549.253 482.352 549.473 482.851 550.037 483.473L552.705 486.42L551.425 486.674L546.391 481.115L547.671 480.86L548.396 481.661C548.345 480.927 548.854 480.454 549.923 480.242ZM559.542 479.601L557.586 479.99L560.314 483.004C560.563 483.278 560.809 483.461 561.054 483.552C561.302 483.634 561.576 483.649 561.877 483.598C562.171 483.54 562.527 483.46 562.945 483.359L563.731 484.227C562.713 484.56 561.834 484.656 561.093 484.515C560.345 484.367 559.659 483.948 559.034 483.258L556.306 480.245L554.849 480.535L554.004 479.601L555.46 479.311L554.312 478.043L555.331 477.5L556.74 479.056L558.697 478.667L559.542 479.601Z" fill="white"/>
<rect x="1.59627" y="0.540857" width="359.619" height="64.3985" rx="29" transform="matrix(0.968684 -0.208252 0.62759 0.749109 331.391 602.786)" stroke="white" stroke-width="2"/>
<path d="M444.319 606.961L449.1 606.01L449.986 606.988L443.836 608.212L436.789 600.428L442.865 599.22L443.751 600.198L439.043 601.135L441.208 603.525L445.548 602.662L446.423 603.629L442.083 604.493L444.319 606.961ZM448.606 598.078C450.009 597.799 451.513 597.946 453.12 598.518C454.73 599.082 456.028 599.908 457.014 600.998C458.001 602.087 458.371 603.103 458.124 604.044C457.88 604.977 457.056 605.582 455.654 605.861L451.638 606.66L444.59 598.877L448.606 598.078ZM454.768 604.883C455.817 604.674 456.424 604.225 456.587 603.537C456.751 602.848 456.457 602.088 455.705 601.258C454.953 600.428 453.992 599.801 452.822 599.378C451.652 598.955 450.542 598.847 449.492 599.056L446.844 599.583L452.12 605.409L454.768 604.883ZM455.15 596.776L456.518 596.504L463.566 604.287L462.197 604.559L455.15 596.776ZM465.542 595.864L460.981 596.771L463.267 599.295L467.636 598.426L468.522 599.404L464.153 600.273L467.143 603.576L465.775 603.848L458.727 596.065L464.656 594.885L465.542 595.864ZM479.683 601.081L477.264 599.502L472.629 600.424L473.372 602.337L471.915 602.627L468.707 594.079L470.252 593.772L481.139 600.792L479.683 601.081ZM472.224 599.363L475.917 598.629L470.59 595.161L472.224 599.363ZM486.952 599.806C485.392 600.116 483.75 599.984 482.025 599.408C480.31 598.831 478.939 597.975 477.913 596.841C476.886 595.707 476.525 594.65 476.83 593.671C477.146 592.69 478.083 592.044 479.642 591.734C480.584 591.546 481.601 591.545 482.695 591.73C483.798 591.913 484.832 592.25 485.797 592.74L485.078 593.5C484.395 593.128 483.645 592.875 482.828 592.74C482.015 592.596 481.255 592.594 480.548 592.734C479.362 592.97 478.653 593.453 478.421 594.181C478.199 594.908 478.481 595.704 479.266 596.572C480.045 597.432 481.068 598.076 482.337 598.506C483.616 598.934 484.849 599.03 486.036 598.794C486.742 598.654 487.27 598.4 487.62 598.033C487.974 597.656 488.107 597.228 488.018 596.747L489.673 597.021C489.765 597.685 489.572 598.27 489.093 598.777C488.607 599.276 487.893 599.619 486.952 599.806ZM492.242 589.398L493.128 590.377L490.082 590.982L496.244 597.787L494.891 598.056L488.729 591.252L485.698 591.854L484.812 590.876L492.242 589.398ZM501.871 597.98L501.106 598.132L497.929 586.955L498.694 586.802L501.871 597.98ZM513.387 594.548C511.828 594.858 510.185 594.725 508.461 594.15C506.746 593.573 505.375 592.717 504.348 591.583C503.321 590.448 502.96 589.392 503.266 588.412C503.581 587.431 504.518 586.786 506.078 586.475C507.019 586.288 508.037 586.287 509.13 586.472C510.233 586.655 511.267 586.991 512.232 587.482L511.514 588.241C510.83 587.87 510.08 587.617 509.263 587.482C508.45 587.338 507.69 587.336 506.984 587.476C505.797 587.712 505.088 588.194 504.856 588.923C504.634 589.649 504.916 590.446 505.701 591.313C506.48 592.173 507.504 592.818 508.773 593.248C510.051 593.676 511.284 593.772 512.471 593.536C513.177 593.396 513.705 593.142 514.056 592.775C514.409 592.398 514.542 591.969 514.454 591.488L516.108 591.763C516.2 592.427 516.007 593.012 515.528 593.518C515.042 594.017 514.329 594.361 513.387 594.548ZM526.846 590.48C526.527 591.47 525.623 592.114 524.132 592.41C522.641 592.707 521.025 592.565 519.284 591.984C517.543 591.403 516.165 590.553 515.152 589.434C514.131 588.307 513.784 587.252 514.109 586.269C514.427 585.278 515.332 584.635 516.823 584.338C518.313 584.041 519.93 584.184 521.671 584.765C523.415 585.336 524.798 586.185 525.818 587.312C526.831 588.431 527.174 589.487 526.846 590.48ZM519.591 591.096C520.88 591.522 522.088 591.623 523.216 591.399C524.344 591.174 525.024 590.698 525.255 589.969C525.49 589.232 525.221 588.437 524.45 587.584C523.671 586.724 522.637 586.081 521.349 585.655C520.063 585.22 518.857 585.114 517.729 585.339C516.601 585.563 515.92 586.044 515.685 586.782C515.453 587.51 515.727 588.304 516.505 589.164C517.277 590.017 518.306 590.661 519.591 591.096ZM527.676 582.35C528.627 582.161 529.635 582.244 530.699 582.601C531.766 582.949 532.621 583.479 533.266 584.19C533.903 584.894 534.122 585.551 533.92 586.16C533.729 586.766 533.158 587.164 532.206 587.353L529.838 587.825L532.355 590.604L530.986 590.876L523.939 583.093L527.676 582.35ZM531.33 586.386C531.899 586.273 532.239 586.035 532.35 585.671C532.454 585.301 532.308 584.897 531.912 584.459C531.51 584.015 530.991 583.685 530.356 583.47C529.722 583.255 529.12 583.204 528.552 583.317L526.183 583.788L528.962 586.857L531.33 586.386ZM545.769 587.936L540.761 585.415L538.334 585.898L541.032 588.878L539.664 589.15L532.616 581.367L536.736 580.548C537.618 580.372 538.588 580.459 539.646 580.809C540.696 581.151 541.524 581.655 542.128 582.323C542.584 582.827 542.799 583.326 542.773 583.821C542.756 584.314 542.512 584.709 542.038 585.004L547.285 587.635L545.769 587.936ZM534.861 582.062L537.488 584.964L540.239 584.417C540.749 584.316 541.053 584.089 541.151 583.737C541.253 583.376 541.122 582.995 540.759 582.595C540.397 582.194 539.907 581.89 539.289 581.68C538.681 581.469 538.122 581.414 537.612 581.515L534.861 582.062ZM555.44 586.012L553.021 584.433L548.386 585.355L549.129 587.268L547.672 587.557L544.464 579.01L546.009 578.703L556.896 585.723L555.44 586.012ZM547.981 584.294L551.674 583.56L546.347 580.092L547.981 584.294ZM564.217 584.267L559.209 581.746L556.781 582.229L559.479 585.209L558.111 585.481L551.064 577.698L555.183 576.878C556.066 576.703 557.036 576.79 558.093 577.139C559.143 577.481 559.971 577.986 560.575 578.653C561.031 579.157 561.246 579.657 561.22 580.152C561.204 580.645 560.959 581.039 560.485 581.335L565.732 583.965L564.217 584.267ZM553.308 578.393L555.936 581.295L558.687 580.748C559.197 580.646 559.501 580.42 559.599 580.068C559.7 579.706 559.569 579.326 559.207 578.925C558.844 578.525 558.354 578.22 557.736 578.011C557.128 577.799 556.569 577.744 556.059 577.846L553.308 578.393ZM568.332 584.76L567.567 584.912L564.391 573.735L565.156 573.582L568.332 584.76ZM579.849 581.328C578.289 581.638 576.647 581.505 574.922 580.93C573.207 580.353 571.836 579.497 570.809 578.363C569.782 577.228 569.422 576.172 569.727 575.192C570.042 574.211 570.98 573.565 572.539 573.255C573.481 573.068 574.498 573.067 575.592 573.252C576.695 573.435 577.729 573.771 578.694 574.262L577.975 575.021C577.292 574.65 576.542 574.397 575.725 574.262C574.911 574.117 574.151 574.116 573.445 574.256C572.259 574.492 571.549 574.974 571.318 575.703C571.096 576.429 571.378 577.226 572.163 578.093C572.941 578.953 573.965 579.598 575.234 580.028C576.513 580.456 577.746 580.552 578.932 580.316C579.639 580.175 580.167 579.922 580.517 579.555C580.871 579.178 581.003 578.749 580.915 578.268L582.57 578.543C582.662 579.207 582.468 579.792 581.989 580.298C581.504 580.797 580.79 581.14 579.849 581.328ZM593.307 577.26C592.989 578.25 592.084 578.894 590.594 579.19C589.103 579.487 587.487 579.345 585.746 578.764C584.004 578.183 582.627 577.333 581.613 576.214C580.593 575.087 580.246 574.032 580.571 573.049C580.889 572.058 581.794 571.415 583.284 571.118C584.775 570.821 586.391 570.964 588.132 571.545C589.877 572.116 591.259 572.965 592.279 574.092C593.293 575.211 593.636 576.267 593.307 577.26ZM586.053 577.876C587.341 578.302 588.55 578.403 589.678 578.179C590.805 577.954 591.485 577.478 591.717 576.749C591.952 576.012 591.683 575.217 590.911 574.364C590.133 573.504 589.099 572.861 587.81 572.435C586.525 572 585.318 571.894 584.19 572.119C583.063 572.343 582.381 572.824 582.146 573.562C581.915 574.29 582.188 575.084 582.967 575.944C583.739 576.797 584.767 577.441 586.053 577.876ZM594.417 569.074C595.819 568.795 597.324 568.942 598.93 569.515C600.54 570.078 601.838 570.905 602.825 571.994C603.812 573.084 604.181 574.1 603.934 575.041C603.69 575.973 602.867 576.579 601.464 576.858L597.448 577.656L590.4 569.873L594.417 569.074ZM600.578 575.879C601.628 575.67 602.234 575.222 602.398 574.533C602.561 573.844 602.267 573.085 601.515 572.255C600.764 571.425 599.803 570.798 598.632 570.374C597.462 569.951 596.352 569.844 595.303 570.053L592.655 570.579L597.93 576.406L600.578 575.879ZM608.49 574.305L613.271 573.354L614.157 574.333L608.008 575.556L600.96 567.773L607.036 566.564L607.922 567.543L603.214 568.479L605.379 570.87L609.719 570.006L610.595 570.974L606.255 571.837L608.49 574.305ZM620.708 573.2C619.149 573.51 617.507 573.378 615.782 572.802C614.067 572.225 612.696 571.369 611.669 570.235C610.642 569.101 610.281 568.044 610.587 567.065C610.902 566.084 611.839 565.438 613.399 565.128C614.34 564.941 615.358 564.939 616.451 565.124C617.554 565.307 618.588 565.644 619.553 566.134L618.835 566.894C618.151 566.523 617.401 566.269 616.585 566.134C615.771 565.99 615.011 565.988 614.305 566.129C613.118 566.365 612.409 566.847 612.177 567.575C611.955 568.302 612.237 569.099 613.023 569.966C613.801 570.826 614.825 571.471 616.094 571.901C617.373 572.329 618.605 572.425 619.792 572.188C620.498 572.048 621.027 571.794 621.377 571.427C621.731 571.051 621.863 570.622 621.775 570.141L623.43 570.415C623.522 571.079 623.328 571.664 622.849 572.171C622.363 572.67 621.65 573.013 620.708 573.2ZM634.167 569.132C633.849 570.123 632.944 570.766 631.453 571.063C629.963 571.359 628.347 571.217 626.605 570.636C624.864 570.055 623.487 569.205 622.473 568.086C621.453 566.959 621.105 565.904 621.43 564.921C621.749 563.931 622.653 563.287 624.144 562.99C625.635 562.694 627.251 562.836 628.992 563.417C630.736 563.989 632.119 564.838 633.139 565.964C634.153 567.084 634.495 568.14 634.167 569.132ZM626.912 569.749C628.201 570.175 629.409 570.275 630.537 570.051C631.665 569.827 632.345 569.35 632.577 568.622C632.811 567.884 632.543 567.089 631.771 566.237C630.992 565.377 629.959 564.734 628.67 564.308C627.385 563.872 626.178 563.767 625.05 563.991C623.922 564.216 623.241 564.697 623.006 565.434C622.774 566.163 623.048 566.957 623.826 567.817C624.598 568.669 625.627 569.313 626.912 569.749Z" fill="white"/>
<rect x="1.59627" y="0.540857" width="359.619" height="64.3985" rx="29" transform="matrix(0.968684 -0.208252 0.62759 0.749109 921.933 156.124)" stroke="white" stroke-width="2"/>
<path d="M1087.85 148.651L1089.22 148.379L1096.27 156.162L1095.16 156.381L1084.6 151.62L1089.87 157.435L1088.5 157.707L1081.45 149.924L1082.55 149.704L1093.1 154.455L1087.85 148.651ZM1104.84 154.457L1094.11 147.405L1095.58 147.112L1104.45 153.012L1101.54 145.927L1103.03 145.631L1106.38 154.149L1104.84 154.457ZM1122.59 149.706C1122.27 150.696 1121.36 151.34 1119.87 151.636C1118.38 151.933 1116.77 151.791 1115.03 151.21C1113.28 150.629 1111.91 149.779 1110.89 148.66C1109.87 147.533 1109.53 146.478 1109.85 145.495C1110.17 144.504 1111.07 143.861 1112.56 143.564C1114.06 143.267 1115.67 143.41 1117.41 143.991C1119.16 144.562 1120.54 145.411 1121.56 146.538C1122.57 147.657 1122.92 148.713 1122.59 149.706ZM1115.33 150.322C1116.62 150.748 1117.83 150.849 1118.96 150.625C1120.09 150.4 1120.77 149.924 1121 149.195C1121.23 148.458 1120.96 147.663 1120.19 146.81C1119.41 145.95 1118.38 145.307 1117.09 144.881C1115.8 144.446 1114.6 144.34 1113.47 144.565C1112.34 144.789 1111.66 145.27 1111.43 146.008C1111.19 146.736 1111.47 147.53 1112.25 148.39C1113.02 149.243 1114.05 149.887 1115.33 150.322ZM1135.38 148.553C1133.82 148.863 1132.18 148.73 1130.45 148.155C1128.74 147.577 1127.36 146.722 1126.34 145.587C1125.31 144.453 1124.95 143.397 1125.26 142.417C1125.57 141.436 1126.51 140.79 1128.07 140.48C1129.01 140.293 1130.03 140.292 1131.12 140.477C1132.22 140.66 1133.26 140.996 1134.22 141.487L1133.5 142.246C1132.82 141.875 1132.07 141.622 1131.25 141.487C1130.44 141.342 1129.68 141.34 1128.97 141.481C1127.79 141.717 1127.08 142.199 1126.85 142.928C1126.62 143.654 1126.91 144.451 1127.69 145.318C1128.47 146.178 1129.49 146.823 1130.76 147.253C1132.04 147.681 1133.27 147.777 1134.46 147.541C1135.17 147.4 1135.7 147.147 1136.05 146.779C1136.4 146.403 1136.53 145.974 1136.44 145.493L1138.1 145.768C1138.19 146.432 1138 147.017 1137.52 147.523C1137.03 148.022 1136.32 148.365 1135.38 148.553ZM1149.93 145.658C1148.37 145.968 1146.73 145.835 1145 145.26C1143.29 144.682 1141.92 143.827 1140.89 142.693C1139.86 141.558 1139.5 140.502 1139.81 139.522C1140.12 138.541 1141.06 137.895 1142.62 137.585C1143.56 137.398 1144.58 137.397 1145.67 137.582C1146.78 137.765 1147.81 138.101 1148.78 138.592L1148.06 139.351C1147.37 138.98 1146.62 138.727 1145.81 138.592C1144.99 138.447 1144.23 138.446 1143.53 138.586C1142.34 138.822 1141.63 139.304 1141.4 140.033C1141.18 140.759 1141.46 141.556 1142.25 142.423C1143.02 143.283 1144.05 143.928 1145.32 144.358C1146.6 144.786 1147.83 144.882 1149.01 144.646C1149.72 144.505 1150.25 144.252 1150.6 143.885C1150.95 143.508 1151.09 143.079 1151 142.598L1152.65 142.873C1152.74 143.537 1152.55 144.122 1152.07 144.628C1151.59 145.127 1150.87 145.47 1149.93 145.658Z" fill="white"/>
<rect x="1.59627" y="0.540857" width="359.619" height="64.3985" rx="29" transform="matrix(0.968684 -0.208252 0.62759 0.749109 994.858 243.169)" stroke="white" stroke-width="2"/>
<path d="M1145.72 241.618L1135.71 234.422L1137.16 234.136L1145.31 240.072L1142.01 233.17L1143.39 232.895L1151.69 238.802L1148.25 231.929L1149.69 231.642L1153.78 240.014L1152.19 240.33L1144.12 234.6L1147.31 241.301L1145.72 241.618ZM1158.26 232.563L1159.54 232.308L1164.57 237.868L1163.29 238.122L1162.43 237.166C1162.45 238.027 1161.86 238.578 1160.64 238.82C1159.61 239.025 1158.48 238.918 1157.24 238.499C1156 238.072 1155.01 237.451 1154.27 236.636C1153.53 235.82 1153.27 235.059 1153.49 234.351C1153.7 233.636 1154.32 233.176 1155.35 232.971C1156.56 232.729 1157.82 232.912 1159.12 233.519L1158.26 232.563ZM1159.96 237.854C1160.7 237.705 1161.15 237.392 1161.31 236.915C1161.46 236.43 1161.28 235.906 1160.77 235.342C1160.26 234.779 1159.59 234.358 1158.75 234.08C1157.9 233.794 1157.1 233.725 1156.35 233.873C1155.62 234.019 1155.17 234.335 1155.02 234.82C1154.87 235.297 1155.04 235.818 1155.55 236.381C1156.06 236.945 1156.74 237.369 1157.59 237.655C1158.43 237.934 1159.22 238 1159.96 237.854ZM1163.6 232.602C1163.4 231.828 1163.85 231.332 1164.96 231.111L1165.88 232.123C1165.23 232.226 1164.8 232.459 1164.6 232.823C1164.4 233.187 1164.57 233.673 1165.12 234.281L1167.79 237.227L1166.51 237.482L1161.48 231.922L1162.76 231.668L1163.6 232.602ZM1169.72 234.088C1170.3 234.559 1170.94 234.885 1171.66 235.066C1172.39 235.245 1173.1 235.265 1173.8 235.126C1174.77 234.933 1175.23 234.522 1175.18 233.893L1176.7 234.144C1176.74 235.124 1176.04 235.757 1174.6 236.044C1173.43 236.276 1172.23 236.191 1171 235.789C1169.77 235.377 1168.77 234.749 1168.01 233.904C1167.25 233.066 1166.97 232.298 1167.19 231.6C1167.4 230.901 1168.08 230.439 1169.21 230.213C1170.29 229.998 1171.43 230.113 1172.63 230.556C1173.84 230.991 1174.8 231.612 1175.53 232.42C1175.66 232.56 1175.78 232.708 1175.88 232.862L1169.72 234.088ZM1170.04 231.125C1169.35 231.261 1168.92 231.523 1168.73 231.909C1168.55 232.288 1168.62 232.732 1168.95 233.243L1173.87 232.266C1173.28 231.761 1172.65 231.415 1171.96 231.229C1171.27 231.042 1170.63 231.008 1170.04 231.125ZM1178.01 228.463C1178.87 228.291 1179.75 228.361 1180.65 228.673C1181.54 228.977 1182.3 229.481 1182.94 230.186L1186.03 233.599L1184.75 233.854L1181.71 230.496C1181.3 230.044 1180.82 229.727 1180.28 229.547C1179.73 229.36 1179.17 229.322 1178.6 229.435C1177.96 229.562 1177.58 229.817 1177.46 230.199C1177.34 230.573 1177.56 231.072 1178.12 231.694L1180.79 234.641L1179.51 234.896L1172.46 227.112L1173.74 226.858L1176.48 229.882C1176.43 229.149 1176.94 228.675 1178.01 228.463ZM1193.39 231.308C1193.15 232.022 1192.48 232.486 1191.4 232.701C1190.33 232.915 1189.15 232.816 1187.89 232.403C1186.63 231.988 1185.63 231.369 1184.89 230.546C1184.14 229.723 1183.89 228.956 1184.12 228.244C1184.37 227.531 1185.03 227.067 1186.11 226.852C1187.19 226.637 1188.36 226.737 1189.63 227.15C1190.89 227.563 1191.9 228.181 1192.64 229.004C1193.39 229.827 1193.64 230.595 1193.39 231.308ZM1190.55 231.756C1191.28 231.609 1191.73 231.297 1191.89 230.82C1192.05 230.342 1191.87 229.822 1191.36 229.258C1190.85 228.695 1190.17 228.274 1189.33 227.995C1188.49 227.717 1187.7 227.651 1186.96 227.797C1186.24 227.942 1185.8 228.252 1185.64 228.73C1185.48 229.208 1185.66 229.728 1186.17 230.291C1186.68 230.855 1187.35 231.276 1188.2 231.554C1189.04 231.833 1189.82 231.9 1190.55 231.756ZM1196.71 224.914L1197.99 224.66L1203.02 230.219L1201.74 230.474L1201.02 229.673C1201.07 230.407 1200.56 230.88 1199.49 231.092C1198.63 231.264 1197.75 231.198 1196.86 230.894C1195.97 230.582 1195.2 230.074 1194.56 229.37L1191.47 225.956L1192.75 225.701L1195.79 229.059C1196.2 229.512 1196.68 229.832 1197.23 230.019C1197.78 230.199 1198.34 230.233 1198.9 230.12C1199.54 229.993 1199.92 229.742 1200.05 229.368C1200.16 228.986 1199.94 228.484 1199.38 227.861L1196.71 224.914ZM1202.38 225.557C1202.58 225.772 1202.88 225.917 1203.28 225.994C1203.68 226.064 1204.12 226.099 1204.6 226.101C1205.07 226.095 1205.55 226.104 1206.04 226.128C1206.53 226.144 1207.03 226.246 1207.54 226.434C1208.04 226.615 1208.46 226.894 1208.8 227.272C1209.26 227.776 1209.36 228.232 1209.12 228.639C1208.88 229.045 1208.36 229.327 1207.56 229.487C1206.84 229.63 1206.12 229.633 1205.4 229.497C1204.67 229.362 1204.02 229.119 1203.45 228.769L1204.12 228.071C1204.48 228.315 1204.89 228.482 1205.36 228.573C1205.82 228.665 1206.28 228.665 1206.73 228.576C1207.15 228.492 1207.45 228.363 1207.62 228.19C1207.78 228.009 1207.74 227.789 1207.51 227.53C1207.31 227.315 1207.01 227.173 1206.62 227.103C1206.21 227.026 1205.77 226.991 1205.3 226.997C1204.83 226.995 1204.34 226.983 1203.85 226.959C1203.35 226.935 1202.85 226.833 1202.35 226.652C1201.85 226.471 1201.44 226.196 1201.1 225.825C1200.66 225.343 1200.55 224.898 1200.76 224.489C1200.98 224.078 1201.46 223.799 1202.2 223.65C1202.8 223.531 1203.43 223.53 1204.07 223.646C1204.73 223.752 1205.34 223.964 1205.9 224.28L1205.24 224.95C1204.54 224.528 1203.8 224.395 1203.02 224.551C1202.66 224.623 1202.41 224.751 1202.27 224.936C1202.13 225.112 1202.17 225.319 1202.38 225.557ZM1206.32 221.808C1206.07 221.857 1205.81 221.835 1205.53 221.742C1205.25 221.649 1205.03 221.514 1204.87 221.336C1204.71 221.158 1204.65 220.99 1204.71 220.83C1204.75 220.664 1204.9 220.556 1205.14 220.507C1205.38 220.461 1205.64 220.487 1205.93 220.588C1206.21 220.68 1206.43 220.816 1206.59 220.994C1206.75 221.172 1206.8 221.34 1206.75 221.499C1206.7 221.659 1206.56 221.762 1206.32 221.808ZM1211.62 228.508L1206.59 222.949L1207.87 222.694L1212.9 228.254L1211.62 228.508ZM1213.35 221.433C1214.22 221.261 1215.1 221.331 1215.99 221.643C1216.88 221.947 1217.64 222.451 1218.28 223.156L1221.37 226.569L1220.09 226.824L1217.05 223.466C1216.64 223.014 1216.17 222.697 1215.62 222.517C1215.07 222.329 1214.51 222.292 1213.94 222.405C1213.3 222.532 1212.92 222.787 1212.81 223.169C1212.68 223.543 1212.9 224.042 1213.47 224.664L1216.14 227.611L1214.86 227.865L1209.82 222.306L1211.1 222.051L1211.83 222.852C1211.78 222.118 1212.28 221.645 1213.35 221.433ZM1224.23 219.44L1225.5 219.188L1230.32 224.514C1231.06 225.337 1231.27 226.048 1230.95 226.646C1230.63 227.252 1229.95 227.657 1228.92 227.862C1228.1 228.026 1227.28 228.049 1226.47 227.931C1225.66 227.82 1224.91 227.576 1224.21 227.199L1224.89 226.499C1225.86 227.041 1226.94 227.194 1228.14 226.956C1228.9 226.804 1229.36 226.533 1229.52 226.143C1229.68 225.751 1229.53 225.292 1229.05 224.766L1228.34 223.976C1228.36 224.846 1227.78 225.4 1226.58 225.638C1225.53 225.847 1224.39 225.742 1223.15 225.323C1221.92 224.904 1220.93 224.29 1220.2 223.483C1219.47 222.675 1219.21 221.92 1219.44 221.22C1219.65 220.512 1220.28 220.054 1221.33 219.845C1222.54 219.605 1223.79 219.789 1225.1 220.396L1224.23 219.44ZM1223.51 224.491C1224.35 224.769 1225.15 224.834 1225.89 224.686C1226.64 224.538 1227.09 224.225 1227.25 223.748C1227.4 223.27 1227.23 222.75 1226.72 222.186C1226.21 221.63 1225.54 221.213 1224.7 220.934C1223.86 220.656 1223.06 220.591 1222.32 220.739C1221.57 220.887 1221.12 221.2 1220.96 221.678C1220.8 222.155 1220.98 222.672 1221.48 223.228C1221.99 223.791 1222.67 224.212 1223.51 224.491Z" fill="white"/>
<rect x="1.59627" y="0.540857" width="359.619" height="64.3985" rx="29" transform="matrix(0.968684 -0.208252 0.62759 0.749109 1067.78 330.213)" stroke="white" stroke-width="2"/>
<path d="M1207.94 323.529L1208.82 324.508L1205.78 325.113L1211.94 331.918L1210.59 332.187L1204.42 325.383L1201.39 325.985L1200.51 325.007L1207.94 323.529ZM1212.29 326.389C1212.09 325.616 1212.54 325.119 1213.65 324.899L1214.57 325.911C1213.92 326.013 1213.49 326.247 1213.29 326.611C1213.09 326.975 1213.26 327.461 1213.81 328.068L1216.48 331.015L1215.2 331.27L1210.17 325.71L1211.45 325.455L1212.29 326.389ZM1220.07 323.74L1221.35 323.486L1226.38 329.045L1225.1 329.3L1224.38 328.499C1224.43 329.233 1223.92 329.706 1222.85 329.918C1221.99 330.09 1221.11 330.024 1220.22 329.719C1219.33 329.408 1218.56 328.9 1217.92 328.196L1214.83 324.782L1216.11 324.527L1219.15 327.885C1219.56 328.338 1220.04 328.657 1220.59 328.845C1221.14 329.025 1221.7 329.059 1222.27 328.946C1222.9 328.819 1223.28 328.568 1223.41 328.194C1223.52 327.812 1223.3 327.309 1222.74 326.687L1220.07 323.74ZM1231.92 328.114C1230.81 328.335 1229.64 328.24 1228.4 327.831C1227.15 327.414 1226.15 326.79 1225.4 325.96C1224.65 325.129 1224.39 324.363 1224.62 323.661C1224.85 322.951 1225.52 322.486 1226.62 322.266C1227.35 322.121 1228.12 322.125 1228.94 322.277C1229.76 322.421 1230.51 322.687 1231.19 323.076L1230.54 323.756C1230.09 323.497 1229.58 323.317 1229.03 323.217C1228.49 323.115 1227.97 323.113 1227.48 323.211C1226.74 323.357 1226.3 323.669 1226.14 324.147C1225.99 324.622 1226.17 325.142 1226.68 325.705C1227.19 326.261 1227.85 326.679 1228.69 326.96C1229.53 327.238 1230.32 327.304 1231.05 327.158C1231.54 327.061 1231.91 326.888 1232.15 326.639C1232.38 326.383 1232.46 326.086 1232.4 325.749L1233.92 326.01C1234 326.51 1233.87 326.952 1233.52 327.336C1233.17 327.713 1232.64 327.972 1231.92 328.114ZM1242.59 325.822L1241 326.138L1235.26 324.17L1237.64 326.805L1236.36 327.06L1229.32 319.277L1230.6 319.022L1234.83 323.703L1235.79 320.614L1237.43 320.286L1236.35 323.676L1242.59 325.822ZM1250.18 315.127L1257.22 322.911L1255.87 323.18L1250.36 317.098L1250.83 322.004L1250.65 322.039L1243.46 318.484L1248.95 324.555L1247.59 324.828L1240.54 317.044L1242.08 316.737L1249.09 320.198L1248.63 315.435L1250.18 315.127ZM1260.35 315.728L1261.63 315.473L1266.66 321.033L1265.38 321.288L1264.52 320.331C1264.54 321.192 1263.95 321.743 1262.73 321.985C1261.7 322.19 1260.57 322.083 1259.34 321.664C1258.09 321.238 1257.1 320.617 1256.36 319.801C1255.63 318.986 1255.36 318.224 1255.58 317.517C1255.79 316.801 1256.41 316.341 1257.44 316.137C1258.65 315.895 1259.91 316.077 1261.22 316.684L1260.35 315.728ZM1262.05 321.019C1262.8 320.871 1263.25 320.558 1263.4 320.08C1263.56 319.595 1263.38 319.071 1262.87 318.508C1262.36 317.944 1261.68 317.523 1260.84 317.245C1259.99 316.959 1259.19 316.89 1258.45 317.038C1257.71 317.185 1257.27 317.5 1257.12 317.985C1256.96 318.463 1257.13 318.983 1257.64 319.547C1258.15 320.11 1258.83 320.535 1259.68 320.821C1260.53 321.099 1261.31 321.165 1262.05 321.019ZM1267.1 314.214C1267.96 314.043 1268.84 314.113 1269.74 314.425C1270.63 314.729 1271.39 315.233 1272.03 315.937L1275.12 319.351L1273.84 319.605L1270.8 316.247C1270.39 315.795 1269.91 315.479 1269.37 315.299C1268.82 315.111 1268.26 315.074 1267.69 315.187C1267.05 315.314 1266.67 315.568 1266.55 315.95C1266.43 316.325 1266.65 316.823 1267.21 317.446L1269.88 320.393L1268.6 320.647L1263.57 315.088L1264.85 314.833L1265.57 315.634C1265.52 314.9 1266.03 314.427 1267.1 314.214ZM1277.96 312.224L1279.24 311.97L1284.28 317.529L1283 317.784L1282.13 316.828C1282.16 317.688 1281.56 318.24 1280.35 318.482C1279.32 318.686 1278.18 318.579 1276.95 318.16C1275.71 317.734 1274.72 317.113 1273.98 316.298C1273.24 315.482 1272.98 314.721 1273.19 314.013C1273.4 313.298 1274.02 312.838 1275.05 312.633C1276.27 312.391 1277.53 312.574 1278.83 313.181L1277.96 312.224ZM1279.66 317.515C1280.41 317.367 1280.86 317.054 1281.02 316.577C1281.17 316.092 1280.99 315.568 1280.48 315.004C1279.97 314.441 1279.29 314.02 1278.45 313.741C1277.6 313.455 1276.8 313.386 1276.06 313.535C1275.32 313.681 1274.88 313.997 1274.73 314.482C1274.57 314.959 1274.75 315.48 1275.26 316.043C1275.77 316.606 1276.45 317.031 1277.3 317.317C1278.14 317.596 1278.93 317.662 1279.66 317.515ZM1287.29 310.37L1288.55 310.118L1293.38 315.444C1294.12 316.267 1294.33 316.977 1294 317.576C1293.68 318.182 1293.01 318.587 1291.98 318.792C1291.16 318.956 1290.34 318.979 1289.52 318.861C1288.72 318.75 1287.96 318.506 1287.26 318.129L1287.95 317.429C1288.92 317.971 1290 318.124 1291.19 317.886C1291.96 317.733 1292.42 317.462 1292.58 317.073C1292.74 316.681 1292.59 316.222 1292.11 315.696L1291.4 314.906C1291.42 315.776 1290.83 316.33 1289.64 316.568C1288.59 316.777 1287.44 316.672 1286.21 316.253C1284.97 315.834 1283.99 315.22 1283.26 314.412C1282.53 313.604 1282.27 312.85 1282.49 312.15C1282.71 311.442 1283.34 310.984 1284.39 310.775C1285.6 310.535 1286.85 310.719 1288.15 311.326L1287.29 310.37ZM1286.57 315.421C1287.41 315.699 1288.2 315.764 1288.95 315.616C1289.69 315.468 1290.14 315.155 1290.3 314.677C1290.46 314.2 1290.28 313.679 1289.77 313.116C1289.27 312.56 1288.6 312.143 1287.76 311.864C1286.91 311.586 1286.12 311.521 1285.37 311.669C1284.63 311.817 1284.18 312.13 1284.02 312.608C1283.86 313.085 1284.03 313.602 1284.54 314.158C1285.05 314.721 1285.72 315.142 1286.57 315.421ZM1294.31 312.778C1294.89 313.25 1295.53 313.575 1296.25 313.756C1296.98 313.935 1297.7 313.955 1298.39 313.816C1299.36 313.623 1299.82 313.212 1299.78 312.583L1301.29 312.834C1301.33 313.814 1300.63 314.447 1299.19 314.734C1298.02 314.966 1296.82 314.881 1295.59 314.479C1294.36 314.067 1293.36 313.439 1292.6 312.594C1291.84 311.756 1291.57 310.988 1291.78 310.29C1291.99 309.592 1292.67 309.129 1293.8 308.903C1294.88 308.688 1296.02 308.803 1297.22 309.246C1298.43 309.681 1299.39 310.302 1300.12 311.11C1300.25 311.251 1300.37 311.398 1300.47 311.552L1294.31 312.778ZM1294.63 309.815C1293.94 309.951 1293.51 310.213 1293.33 310.599C1293.14 310.978 1293.21 311.422 1293.54 311.933L1298.46 310.956C1297.87 310.451 1297.24 310.105 1296.55 309.919C1295.86 309.732 1295.22 309.698 1294.63 309.815ZM1306.88 306.301C1307.71 306.137 1308.56 306.209 1309.44 306.515C1310.31 306.814 1311.06 307.308 1311.68 307.997L1314.81 311.455L1313.53 311.71L1310.43 308.285C1310.04 307.855 1309.59 307.551 1309.08 307.372C1308.58 307.194 1308.08 307.153 1307.59 307.251C1307.04 307.36 1306.72 307.588 1306.64 307.936C1306.57 308.275 1306.79 308.73 1307.31 309.301L1310.11 312.392L1308.83 312.646L1305.72 309.222C1305.34 308.792 1304.89 308.486 1304.39 308.306C1303.9 308.123 1303.42 308.08 1302.94 308.175C1302.4 308.283 1302.07 308.513 1301.97 308.867C1301.87 309.219 1302.07 309.677 1302.58 310.24L1305.38 313.331L1304.1 313.586L1299.07 308.026L1300.35 307.772L1301.02 308.516C1300.99 307.824 1301.45 307.382 1302.41 307.191C1303.4 306.994 1304.41 307.166 1305.43 307.706C1305.37 306.974 1305.85 306.506 1306.88 306.301ZM1315.37 308.589C1315.95 309.06 1316.6 309.386 1317.32 309.567C1318.04 309.745 1318.76 309.765 1319.45 309.627C1320.42 309.434 1320.89 309.023 1320.84 308.394L1322.35 308.644C1322.39 309.624 1321.69 310.258 1320.25 310.544C1319.08 310.777 1317.88 310.692 1316.65 310.289C1315.42 309.878 1314.42 309.249 1313.66 308.404C1312.9 307.567 1312.63 306.799 1312.84 306.1C1313.05 305.402 1313.73 304.94 1314.87 304.713C1315.94 304.499 1317.08 304.613 1318.28 305.057C1319.49 305.491 1320.46 306.112 1321.19 306.92C1321.31 307.061 1321.43 307.208 1321.54 307.363L1315.37 308.589ZM1315.69 305.625C1315 305.762 1314.57 306.023 1314.39 306.409C1314.2 306.788 1314.27 307.233 1314.61 307.744L1319.52 306.766C1318.94 306.261 1318.3 305.916 1317.61 305.729C1316.92 305.543 1316.28 305.508 1315.69 305.625ZM1323.66 302.963C1324.53 302.792 1325.41 302.862 1326.3 303.173C1327.19 303.478 1327.95 303.982 1328.59 304.686L1331.68 308.1L1330.4 308.354L1327.36 304.996C1326.95 304.544 1326.48 304.228 1325.93 304.048C1325.38 303.86 1324.82 303.823 1324.25 303.936C1323.61 304.063 1323.23 304.317 1323.12 304.699C1322.99 305.074 1323.21 305.572 1323.78 306.195L1326.45 309.142L1325.17 309.396L1320.13 303.837L1321.41 303.582L1322.14 304.383C1322.09 303.649 1322.59 303.176 1323.66 302.963ZM1333.28 302.323L1331.33 302.712L1334.05 305.725C1334.3 306 1334.55 306.182 1334.79 306.274C1335.04 306.356 1335.32 306.371 1335.62 306.32C1335.91 306.261 1336.27 306.182 1336.69 306.081L1337.47 306.948C1336.45 307.282 1335.57 307.378 1334.83 307.237C1334.08 307.088 1333.4 306.669 1332.77 305.98L1330.05 302.967L1328.59 303.256L1327.74 302.322L1329.2 302.033L1328.05 300.765L1329.07 300.221L1330.48 301.778L1332.44 301.389L1333.28 302.323Z" fill="white"/>
<rect x="1.59627" y="0.540857" width="359.619" height="64.3985" rx="29" transform="matrix(0.968684 -0.208252 0.62759 0.749109 1140.71 417.258)" stroke="white" stroke-width="2"/>
<path d="M1284.04 406.33L1284.93 407.308L1281.88 407.914L1288.04 414.719L1286.69 414.988L1280.53 408.183L1277.5 408.786L1276.61 407.807L1284.04 406.33ZM1292.03 407.365L1293.31 407.11L1298.34 412.67L1297.06 412.924L1296.2 411.968C1296.23 412.829 1295.63 413.38 1294.41 413.622C1293.39 413.827 1292.25 413.72 1291.02 413.301C1289.77 412.874 1288.78 412.253 1288.04 411.438C1287.31 410.623 1287.05 409.861 1287.26 409.153C1287.47 408.438 1288.09 407.978 1289.12 407.773C1290.34 407.531 1291.59 407.714 1292.9 408.321L1292.03 407.365ZM1293.73 412.656C1294.48 412.507 1294.93 412.195 1295.09 411.717C1295.24 411.232 1295.06 410.708 1294.55 410.145C1294.04 409.581 1293.36 409.16 1292.52 408.882C1291.67 408.596 1290.87 408.527 1290.13 408.675C1289.39 408.821 1288.95 409.137 1288.8 409.622C1288.64 410.1 1288.81 410.62 1289.32 411.183C1289.83 411.747 1290.51 412.171 1291.36 412.457C1292.21 412.736 1293 412.802 1293.73 412.656ZM1298.78 405.851C1299.65 405.68 1300.52 405.75 1301.42 406.061C1302.31 406.366 1303.07 406.87 1303.71 407.574L1306.8 410.988L1305.52 411.242L1302.48 407.884C1302.07 407.432 1301.59 407.116 1301.05 406.936C1300.5 406.748 1299.94 406.711 1299.37 406.824C1298.73 406.951 1298.35 407.205 1298.24 407.587C1298.11 407.962 1298.33 408.46 1298.9 409.083L1301.56 412.029L1300.28 412.284L1295.25 406.724L1296.53 406.47L1297.25 407.27C1297.2 406.537 1297.71 406.064 1298.78 405.851ZM1314.81 409.394L1313.22 409.71L1307.48 407.742L1309.87 410.378L1308.59 410.632L1301.54 402.849L1302.82 402.594L1307.06 407.275L1308.01 404.186L1309.66 403.858L1308.58 407.248L1314.81 409.394ZM1322.4 398.7L1329.45 406.483L1328.09 406.752L1322.59 400.67L1323.05 405.576L1322.88 405.612L1315.68 402.056L1321.18 408.127L1319.81 408.4L1312.76 400.616L1314.31 400.309L1321.31 403.77L1320.86 399.007L1322.4 398.7ZM1332.57 399.3L1333.85 399.046L1338.89 404.605L1337.61 404.86L1336.74 403.903C1336.77 404.764 1336.17 405.315 1334.96 405.557C1333.93 405.762 1332.8 405.655 1331.56 405.236C1330.32 404.81 1329.33 404.189 1328.59 403.373C1327.85 402.558 1327.59 401.796 1327.8 401.089C1328.01 400.373 1328.63 399.913 1329.66 399.709C1330.88 399.467 1332.14 399.649 1333.44 400.256L1332.57 399.3ZM1334.27 404.591C1335.02 404.443 1335.47 404.13 1335.63 403.652C1335.78 403.167 1335.6 402.643 1335.09 402.08C1334.58 401.517 1333.9 401.096 1333.06 400.817C1332.21 400.531 1331.42 400.462 1330.67 400.61C1329.93 400.757 1329.49 401.072 1329.34 401.557C1329.18 402.035 1329.36 402.555 1329.87 403.119C1330.38 403.682 1331.06 404.107 1331.91 404.393C1332.75 404.671 1333.54 404.737 1334.27 404.591ZM1335.52 397.519C1335.28 397.568 1335.02 397.546 1334.74 397.453C1334.45 397.36 1334.23 397.225 1334.07 397.047C1333.91 396.869 1333.86 396.7 1333.91 396.541C1333.96 396.375 1334.1 396.267 1334.35 396.218C1334.58 396.171 1334.84 396.198 1335.13 396.298C1335.41 396.391 1335.63 396.527 1335.79 396.705C1335.95 396.882 1336.01 397.051 1335.96 397.21C1335.9 397.369 1335.76 397.472 1335.52 397.519ZM1340.83 404.219L1335.79 398.66L1337.07 398.405L1342.11 403.965L1340.83 404.219ZM1342.56 397.144C1343.42 396.972 1344.3 397.042 1345.2 397.354C1346.09 397.658 1346.85 398.162 1347.49 398.866L1350.58 402.28L1349.3 402.535L1346.26 399.177C1345.85 398.724 1345.37 398.408 1344.82 398.228C1344.27 398.04 1343.71 398.003 1343.14 398.116C1342.51 398.243 1342.13 398.497 1342.01 398.879C1341.89 399.254 1342.11 399.753 1342.67 400.375L1345.34 403.322L1344.06 403.576L1339.03 398.017L1340.31 397.762L1341.03 398.563C1340.98 397.829 1341.49 397.356 1342.56 397.144ZM1352.18 396.503L1350.22 396.892L1352.95 399.906C1353.2 400.18 1353.44 400.363 1353.69 400.454C1353.94 400.536 1354.21 400.551 1354.51 400.5C1354.81 400.442 1355.16 400.362 1355.58 400.261L1356.37 401.129C1355.35 401.462 1354.47 401.558 1353.73 401.417C1352.98 401.269 1352.29 400.849 1351.67 400.16L1348.94 397.147L1347.48 397.437L1346.64 396.503L1348.09 396.213L1346.95 394.945L1347.97 394.402L1349.37 395.958L1351.33 395.569L1352.18 396.503ZM1358.56 394.13L1359.84 393.876L1364.88 399.435L1363.6 399.69L1362.73 398.734C1362.76 399.594 1362.16 400.146 1360.95 400.388C1359.92 400.592 1358.79 400.485 1357.55 400.066C1356.31 399.64 1355.32 399.019 1354.58 398.204C1353.84 397.388 1353.58 396.627 1353.79 395.919C1354 395.204 1354.62 394.744 1355.65 394.539C1356.87 394.297 1358.13 394.48 1359.43 395.087L1358.56 394.13ZM1360.26 399.421C1361.01 399.273 1361.46 398.96 1361.62 398.483C1361.77 397.998 1361.59 397.474 1361.08 396.91C1360.57 396.347 1359.89 395.926 1359.05 395.647C1358.2 395.361 1357.41 395.292 1356.66 395.441C1355.92 395.587 1355.48 395.903 1355.33 396.388C1355.17 396.865 1355.35 397.386 1355.86 397.949C1356.37 398.512 1357.05 398.937 1357.9 399.223C1358.74 399.502 1359.53 399.568 1360.26 399.421ZM1361.51 392.349C1361.27 392.398 1361.01 392.376 1360.73 392.283C1360.44 392.191 1360.22 392.055 1360.06 391.877C1359.9 391.699 1359.85 391.531 1359.9 391.372C1359.95 391.205 1360.09 391.097 1360.34 391.049C1360.57 391.002 1360.83 391.028 1361.12 391.129C1361.4 391.222 1361.62 391.357 1361.78 391.535C1361.94 391.713 1362 391.881 1361.95 392.04C1361.89 392.2 1361.75 392.303 1361.51 392.349ZM1366.82 399.05L1361.78 393.49L1363.06 393.235L1368.1 398.795L1366.82 399.05ZM1368.55 391.974C1369.41 391.802 1370.29 391.872 1371.19 392.184C1372.08 392.488 1372.84 392.992 1373.48 393.697L1376.57 397.11L1375.29 397.365L1372.25 394.007C1371.84 393.555 1371.36 393.239 1370.81 393.058C1370.26 392.871 1369.7 392.833 1369.13 392.947C1368.5 393.073 1368.12 393.328 1368 393.71C1367.88 394.084 1368.1 394.583 1368.66 395.205L1371.33 398.152L1370.05 398.407L1365.02 392.847L1366.3 392.592L1367.02 393.393C1366.97 392.66 1367.48 392.187 1368.55 391.974ZM1379.41 389.984L1380.69 389.729L1385.72 395.289L1384.44 395.543L1383.58 394.587C1383.61 395.448 1383.01 395.999 1381.79 396.241C1380.77 396.446 1379.63 396.339 1378.4 395.92C1377.15 395.493 1376.16 394.872 1375.42 394.057C1374.69 393.242 1374.43 392.48 1374.64 391.772C1374.85 391.057 1375.47 390.597 1376.5 390.392C1377.72 390.15 1378.97 390.333 1380.28 390.94L1379.41 389.984ZM1381.11 395.275C1381.86 395.127 1382.31 394.814 1382.47 394.336C1382.62 393.851 1382.44 393.327 1381.93 392.764C1381.42 392.2 1380.74 391.779 1379.9 391.501C1379.05 391.215 1378.25 391.146 1377.51 391.294C1376.77 391.44 1376.33 391.756 1376.18 392.241C1376.02 392.719 1376.19 393.239 1376.7 393.802C1377.21 394.366 1377.89 394.79 1378.74 395.076C1379.59 395.355 1380.38 395.421 1381.11 395.275ZM1386.16 388.47C1387.03 388.299 1387.9 388.369 1388.8 388.68C1389.69 388.985 1390.45 389.489 1391.09 390.193L1394.18 393.607L1392.9 393.861L1389.86 390.503C1389.45 390.051 1388.97 389.735 1388.43 389.555C1387.88 389.367 1387.32 389.33 1386.75 389.443C1386.11 389.57 1385.73 389.824 1385.62 390.206C1385.49 390.581 1385.71 391.079 1386.28 391.702L1388.94 394.648L1387.66 394.903L1382.63 389.343L1383.91 389.089L1384.63 389.889C1384.58 389.156 1385.09 388.683 1386.16 388.47ZM1397.02 386.48L1398.3 386.226L1403.34 391.785L1402.06 392.04L1401.19 391.083C1401.22 391.944 1400.62 392.495 1399.41 392.737C1398.38 392.942 1397.25 392.835 1396.01 392.416C1394.77 391.99 1393.78 391.369 1393.04 390.553C1392.3 389.738 1392.04 388.976 1392.25 388.269C1392.46 387.554 1393.08 387.094 1394.11 386.889C1395.33 386.647 1396.59 386.829 1397.89 387.436L1397.02 386.48ZM1398.72 391.771C1399.47 391.623 1399.92 391.31 1400.08 390.832C1400.23 390.347 1400.05 389.823 1399.54 389.26C1399.03 388.697 1398.35 388.276 1397.51 387.997C1396.66 387.711 1395.87 387.642 1395.12 387.791C1394.38 387.937 1393.94 388.252 1393.79 388.737C1393.63 389.215 1393.81 389.735 1394.32 390.299C1394.83 390.862 1395.51 391.287 1396.36 391.573C1397.2 391.851 1397.99 391.917 1398.72 391.771ZM1408.87 390.856C1407.76 391.077 1406.58 390.982 1405.34 390.572C1404.1 390.155 1403.1 389.532 1402.35 388.702C1401.6 387.871 1401.34 387.105 1401.57 386.403C1401.79 385.693 1402.46 385.228 1403.57 385.008C1404.3 384.863 1405.07 384.867 1405.89 385.019C1406.7 385.163 1407.45 385.429 1408.14 385.817L1407.49 386.498C1407.03 386.239 1406.53 386.059 1405.98 385.959C1405.43 385.857 1404.92 385.855 1404.43 385.953C1403.69 386.099 1403.24 386.411 1403.09 386.889C1402.94 387.364 1403.12 387.884 1403.63 388.447C1404.13 389.003 1404.8 389.421 1405.63 389.702C1406.48 389.98 1407.26 390.046 1408 389.9C1408.49 389.802 1408.85 389.629 1409.09 389.381C1409.32 389.125 1409.41 388.828 1409.35 388.491L1410.87 388.752C1410.95 389.252 1410.82 389.694 1410.47 390.078C1410.12 390.454 1409.58 390.714 1408.87 390.856ZM1411.99 387.308C1412.57 387.78 1413.22 388.106 1413.94 388.286C1414.66 388.465 1415.38 388.485 1416.07 388.347C1417.04 388.153 1417.51 387.742 1417.46 387.113L1418.97 387.364C1419.01 388.344 1418.31 388.977 1416.87 389.264C1415.7 389.496 1414.5 389.411 1413.27 389.009C1412.04 388.597 1411.04 387.969 1410.28 387.124C1409.52 386.286 1409.25 385.518 1409.46 384.82C1409.67 384.122 1410.35 383.659 1411.49 383.433C1412.56 383.218 1413.7 383.333 1414.9 383.777C1416.11 384.211 1417.08 384.832 1417.81 385.64C1417.93 385.781 1418.05 385.928 1418.16 386.082L1411.99 387.308ZM1412.31 384.345C1411.62 384.481 1411.19 384.743 1411.01 385.129C1410.82 385.508 1410.89 385.953 1411.23 386.463L1416.14 385.486C1415.56 384.981 1414.92 384.635 1414.23 384.449C1413.54 384.262 1412.9 384.228 1412.31 384.345Z" fill="white"/>
<rect x="1.62633" y="0.420587" width="361.943" height="63.6345" rx="29" transform="matrix(0.946827 -0.281479 0.679499 0.702066 825.576 663.981)" stroke="white" stroke-width="2"/>
<path d="M993.873 642.834L998.573 641.541L999.527 642.453L993.482 644.116L985.892 636.861L991.865 635.218L992.819 636.13L988.191 637.403L990.522 639.631L994.789 638.458L995.732 639.36L991.465 640.533L993.873 642.834ZM998.278 639.26L997.367 638.389L1002.65 636.937L1003.56 637.808L998.278 639.26ZM1001 632.704L1002.35 632.334L1009.94 639.589L1008.59 639.959L1001 632.704ZM1010.02 632.72C1010.87 632.487 1011.75 632.493 1012.67 632.74C1013.57 632.979 1014.37 633.427 1015.06 634.083L1018.39 637.266L1017.13 637.612L1013.86 634.481C1013.41 634.06 1012.92 633.779 1012.36 633.638C1011.79 633.491 1011.23 633.494 1010.67 633.648C1010.05 633.82 1009.69 634.101 1009.6 634.491C1009.5 634.873 1009.76 635.355 1010.37 635.935L1013.24 638.682L1011.98 639.028L1006.56 633.845L1007.82 633.499L1008.6 634.245C1008.5 633.518 1008.97 633.009 1010.02 632.72ZM1019.69 630.235L1021.05 629.861L1023.57 635.839L1022.1 636.245L1013.79 631.858L1015.14 631.484L1021.83 635.078L1019.69 630.235ZM1032.67 632.496C1032.48 633.226 1031.85 633.736 1030.79 634.028C1029.73 634.32 1028.55 634.305 1027.26 633.984C1025.98 633.661 1024.94 633.115 1024.13 632.348C1023.33 631.581 1023.02 630.834 1023.2 630.108C1023.4 629.378 1024.02 628.868 1025.09 628.576C1026.15 628.284 1027.32 628.299 1028.61 628.62C1029.91 628.941 1030.95 629.485 1031.76 630.252C1032.56 631.019 1032.86 631.767 1032.67 632.496ZM1029.87 633.147C1030.59 632.948 1031.01 632.605 1031.14 632.117C1031.26 631.63 1031.05 631.123 1030.5 630.598C1029.95 630.073 1029.24 629.702 1028.38 629.484C1027.52 629.267 1026.73 629.258 1026.01 629.457C1025.29 629.653 1024.88 629.995 1024.75 630.483C1024.63 630.971 1024.84 631.477 1025.39 632.002C1025.94 632.527 1026.65 632.899 1027.51 633.116C1028.37 633.333 1029.15 633.343 1029.87 633.147ZM1030.18 626.134C1029.94 626.201 1029.67 626.198 1029.39 626.125C1029.1 626.053 1028.87 625.934 1028.7 625.768C1028.52 625.602 1028.46 625.438 1028.5 625.275C1028.53 625.106 1028.67 624.988 1028.91 624.922C1029.14 624.858 1029.4 624.866 1029.7 624.945C1029.98 625.017 1030.21 625.137 1030.39 625.302C1030.56 625.468 1030.63 625.632 1030.59 625.795C1030.55 625.958 1030.41 626.071 1030.18 626.134ZM1035.95 632.435L1030.53 627.253L1031.79 626.906L1037.21 632.089L1035.95 632.435ZM1042.67 630.761C1041.58 631.061 1040.4 631.051 1039.13 630.731C1037.86 630.405 1036.82 629.855 1036.01 629.081C1035.2 628.307 1034.89 627.562 1035.07 626.844C1035.24 626.12 1035.87 625.609 1036.96 625.309C1037.68 625.113 1038.45 625.061 1039.28 625.153C1040.1 625.238 1040.87 625.45 1041.58 625.787L1040.98 626.513C1040.51 626.287 1039.99 626.144 1039.43 626.085C1038.88 626.022 1038.37 626.057 1037.89 626.19C1037.16 626.389 1036.74 626.732 1036.62 627.22C1036.5 627.705 1036.72 628.21 1037.27 628.735C1037.81 629.253 1038.51 629.622 1039.36 629.842C1040.22 630.059 1041.01 630.068 1041.73 629.87C1042.22 629.737 1042.57 629.538 1042.79 629.273C1043 629.001 1043.06 628.699 1042.97 628.367L1044.51 628.518C1044.63 629.011 1044.53 629.461 1044.21 629.869C1043.89 630.27 1043.37 630.567 1042.67 630.761ZM1045.53 626.997C1046.14 627.426 1046.81 627.704 1047.54 627.833C1048.28 627.958 1048.99 627.927 1049.68 627.739C1050.63 627.476 1051.06 627.033 1050.97 626.409L1052.49 626.55C1052.6 627.525 1051.95 628.207 1050.54 628.597C1049.39 628.912 1048.19 628.914 1046.93 628.601C1045.67 628.279 1044.63 627.724 1043.81 626.937C1042.99 626.156 1042.66 625.409 1042.83 624.698C1042.99 623.986 1043.63 623.476 1044.75 623.168C1045.81 622.877 1046.95 622.909 1048.18 623.265C1049.41 623.611 1050.42 624.161 1051.21 624.914C1051.35 625.045 1051.47 625.184 1051.59 625.33L1045.53 626.997ZM1045.63 624.018C1044.96 624.204 1044.54 624.496 1044.39 624.894C1044.23 625.286 1044.33 625.724 1044.7 626.209L1049.54 624.881C1048.92 624.419 1048.26 624.12 1047.55 623.984C1046.85 623.848 1046.21 623.859 1045.63 624.018Z" fill="white"/>
</svg>
